<?xml version="1.0" encoding="UTF-8"?> <!-- Generator: Adobe Illustrator 19.0.0, SVG Export Plug-In . SVG Version: 6.00 Build 0) --> <svg xmlns="http://www.w3.org/2000/svg" xmlns:xlink="http://www.w3.org/1999/xlink" id="Lag_1" x="0px" y="0px" viewBox="67 356.4 729.2 129.4" style="enable-background:new 67 356.4 729.2 129.4;" xml:space="preserve"> <style type="text/css"> .st0{stroke:#000000;stroke-width:8;} </style> <title>costume_logo_sort</title> <path class="st0" d="M160.9,385.6c-8-7.4-18.5-11.6-29.4-11.7c-24.9,0-45.1,20.2-45.2,45.1c0,0.1,0,0.1,0,0.2 c0,26.5,21.9,45.3,45.1,45.3c11.4,0.2,22.3-4.2,30.5-12.1l9.1,10.4c-10.9,9.7-25,15.1-39.6,15.3C92.8,478,71,447.4,71,419.2 s21.8-58.8,60.4-58.8c15.2,0,30,6.1,39.2,14.5L160.9,385.6z"></path> <path class="st0" d="M236.5,360.4c38.7,0,60.5,30.6,60.5,58.8S275.2,478,236.5,478s-60.4-30.6-60.4-58.8S197.8,360.4,236.5,360.4z M236.5,464.5c23.2,0,45.1-18.3,45.1-45.3s-21.9-45.3-45.1-45.3s-45.1,18.3-45.1,45.3S213.3,464.5,236.5,464.5L236.5,464.5z"></path> <path class="st0" d="M365.8,394.8c-2-13.5-9.8-21.8-21.9-21.8c-16.2,0-20.5,10.6-20.5,18.5c0,8.5,5.4,14,16.6,18.1l14.4,5.4 c18.1,6.8,26.5,17.4,26.5,31.2c0,18.5-14.7,31.8-36.6,31.8c-20.7,0-35.4-11-37.2-33.8h14.4c1.2,12.5,7.5,21.1,23.5,21.1 c12.5,0,21.5-8,21.5-18c0-8.9-7.4-14.5-17.7-18.6l-14.5-5.7c-17-6.6-25.4-16.5-25.4-31.2c0-19.6,16.4-31.5,35.1-31.5 c18.9,0,33.6,11.2,35.2,34.4L365.8,394.8L365.8,394.8z"></path> <path class="st0" d="M422.9,375.7h-34v-13.5h82.4v13.5h-34v100.5H423L422.9,375.7L422.9,375.7z"></path> <path class="st0" d="M487.3,362.2h14.4v68.4c0,18.6,10.3,33.9,30.3,33.9s30.3-15.3,30.3-33.9v-68.4h14.4v72.6 c0,24.6-18.6,43.2-45,43.2c-25.8,0-44.4-18.6-44.4-43.2V362.2z"></path> <path class="st0" d="M701.3,362.2h14.4v114h-14.4v-84.5H701l-46,85.6l-46-85.6h-0.3v84.5h-14.5v-114h14.4l46.3,86.1L701.3,362.2z"></path> <path class="st0" d="M733.3,362.2h59v13.5h-44.6v36.1h44.5v13.5h-44.5v37.4h44.5v13.5h-59L733.3,362.2L733.3,362.2z"></path> </svg> 