<?xml version="1.0" encoding="UTF-8"?> <svg xmlns="http://www.w3.org/2000/svg" xmlns:xlink="http://www.w3.org/1999/xlink" width="550px" height="89px" viewBox="0 0 550 89"> <!-- Generator: Sketch 48.2 (47327) - http://www.bohemiancoding.com/sketch --> <title>Group</title> <desc>Created with Sketch.</desc> <defs></defs> <g id="Page-1" stroke="none" stroke-width="1" fill="none" fill-rule="evenodd"> <g id="Group" transform="translate(-1.000000, 0.000000)" fill="#000000" fill-rule="nonzero"> <path d="M12.12,10.96 C5.95,17.96 4.43,24.31 2.04,43.87 C1.15756022,49.8637895 0.822844403,55.9254929 1.04,61.98 C1.85,74.53 10.68,87.2 28.59,87.2 C37.1058396,87.3146703 45.244491,83.6930253 50.86,77.29 C57.36,69.86 59.28,62.05 60.72,49.37 L62.07,36.96 L30.75,36.96 L28.75,55.22 L39.75,55.22 L39.69,55.72 C38.75,63.05 34.33,67.96 28.66,67.96 C24.07,67.96 21.66,65.45 21.35,60.29 C21.04,55.13 22.04,46.62 22.35,44.11 C23.91,32.33 24.62,26.95 27.8,23.31 C29.5872321,21.2293705 32.1776179,20.0105795 34.92,19.96 C39.04,19.96 41.73,23.16 42.3,28.72 L42.4,29.72 L62.75,29.72 L62.67,28.54 C61.84,15.73 54.09,0.76 34.95,0.76 C26.2015667,0.59454618 17.833752,4.33312304 12.12,10.96 Z" id="Shape"></path> <path d="M142.49,25.21 L142.91,21.73 L124.29,21.73 L116.37,86.49 L135.64,86.49 L140.08,50.12 C140.75,44.54 144.59,42.5 147.69,41.77 C151.086374,41.1467488 154.537954,40.8753138 157.99,40.96 L158.99,40.96 L161.75,22.3 L160.89,22 C158.882847,21.3108515 156.771989,20.9725729 154.65,21 C150.234408,20.9709568 145.942377,22.4569311 142.49,25.21 Z" id="Shape"></path> <path d="M188.36,1.5 L187.36,1.5 L176.81,86.5 L206.67,86.5 C216.42,86.5 223.98,83.5 229.13,77.63 C235.59,70.26 236.82,64.7 239.29,44.13 C240.55,33.23 240.88,29.53 240.65,26.03 C239.65,10.68 229.86,1.51 214.44,1.51 L188.36,1.51 L188.36,1.5 Z M212.49,20.7 C215.8,20.7 219.83,21.97 220.22,28.03 L220.22,29.03 C220.22,31.7 219.79,36.69 218.94,43.85 C217.24,58.45 216.3,61.68 214.32,63.94 C212.312966,66.2300681 209.359584,67.4631049 206.32,67.28 L199.61,67.28 L205.36,20.68 L212.46,20.68 L212.49,20.7 Z" id="Shape"></path> <path d="M326.33,6.26 L307.7,6.26 L305.47,24.16 L300.34,24.16 L298.34,40.45 L303.47,40.45 L300.41,65.59 L300.23,68.74 L300.3,70.91 C300.9,80.22 307.86,86.48 317.63,86.48 L326.63,86.48 L328.75,69.03 L322.15,69.03 C320.21,69.03 319.76,68.28 319.69,67.16 C319.69,67.16 319.69,65.96 319.69,65.94 C319.69,65.92 319.82,64.89 322.02,46.65 L322.77,40.44 L331.5,40.44 L333.5,24.15 L324.75,24.15 L326.98,6.25 L326.35,6.25 L326.33,6.26 Z" id="Shape"></path> <path d="M364.58,8.53 C359.21,13.45 356.33,20.53 356.26,29.03 C356.18,39.79 362.45,47.5 374.91,51.95 L380.77,54.06 C384.68,55.46 386.54,56.8 386.51,60.65 C386.481193,62.2987611 385.754317,63.85791 384.51,64.94 C382.39,66.88 379.07,67.81 375.39,67.51 C370.29,67.1 360.39,63.07 356.83,59.96 L355.33,58.66 L351.87,79.32 L353.69,80.75 C358.85,84.19 364.93,86.02 373.44,86.75 C384.13,87.63 393.28,85.12 399.2,79.75 C404.29,75.1 406.9,68.54 406.96,60.24 L406.96,59.87 C406.96,47 401.74,40.12 388.33,35.33 L382.47,33.22 L382.29,33.15 C379.29,32 376.61,31.01 376.61,27.49 C376.671949,25.683183 377.483597,23.9837942 378.85,22.8 C381.156064,20.8831941 384.156326,20.0135531 387.13,20.4 C391.78,20.78 398.79,23.11 402.02,26.22 L403.59,27.73 L406.46,7.22 L405.87,6.83 C400.934135,3.73545615 395.319155,1.88896522 389.51,1.45 C379.35,0.58 370.51,3.11 364.58,8.53 Z" id="Shape"></path> <path d="M252.08,28.96 C244.93,36.59 241.36,49.33 242.3,63.96 C243.4,81.1 256.06,87.2 267.53,87.2 C277.73,87.2 282.79,85.2 288.34,79.13 C290.387795,76.835013 291.979515,74.1708322 293.03,71.28 L293.35,70.28 L277.66,63.63 L277.15,64.41 C274.49,68.52 273.04,69.71 268.63,69.71 C263.74,69.71 260.88,67.11 260.58,62.38 C260.58,62.38 260.58,61.27 260.58,61 L294.29,61 L294.44,60.06 C295.126399,55.9948992 295.494184,51.8823887 295.54,47.76 L295.45,44.82 C294.53,30.57 284.68,20.99 270.93,20.99 C263.793823,20.8171748 256.927681,23.7202599 252.08,28.96 Z M270.92,38.11 C274.61,38.11 276.8,40.55 277.09,44.97 L277.09,45.69 L277.03,46.81 L262.38,46.81 C263.88,41.08 266.75,38.13 270.92,38.13 L270.92,38.11 Z" id="Shape"></path> <path d="M420.92,28.96 C413.77,36.59 410.21,49.33 411.15,63.96 C412.25,81.1 424.9,87.2 436.38,87.2 C446.58,87.2 451.64,85.2 457.19,79.13 C459.237795,76.835013 460.829515,74.1708322 461.88,71.28 L462.2,70.28 L446.51,63.63 L446,64.42 C443.33,68.53 441.89,69.72 437.48,69.72 C432.59,69.72 429.73,67.12 429.43,62.39 C429.43,62.39 429.43,61.28 429.43,61.01 L463.15,61.01 L463.3,60.07 C463.985551,56.00479 464.353331,51.8923458 464.4,47.77 L464.31,44.83 C463.39,30.58 453.54,21 439.79,21 C432.648466,20.8188215 425.774129,23.7186478 420.92,28.96 Z M439.75,38.13 C443.44,38.13 445.63,40.57 445.92,44.99 L445.92,45.71 L445.85,46.83 L431.21,46.83 C432.75,41.08 435.58,38.13 439.75,38.13 Z" id="Shape"></path> <polygon id="Shape" points="493.93 1.5 475.28 1.5 465.4 86.49 484.38 86.49 494.55 1.5"></polygon> <polygon id="Shape" points="512.37 23.72 493.75 23.72 506.91 86.49 521.52 86.49 550.58 23.72 529.93 23.72 517.7 53.64 512.84 23.72 512.37 23.72"></polygon> <path d="M116.75,18.58 L104.87,18.58 L101.95,22.89 C99.046638,21.6917881 95.9407478,21.0604268 92.8,21.03 C84.92,21.03 77.9,23.88 73.56,28.85 C68.44,34.69 66.13,41.27 64.75,53.96 C64.3951781,56.8333291 64.2081941,59.7249028 64.19,62.62 L64.27,65.43 C64.4835115,69.9288512 65.9713179,74.2743557 68.56,77.96 L62.16,88.41 L75.96,88.41 L77.96,85.41 C80.9132749,86.6831878 84.1045411,87.3105307 87.32,87.25 C95.2,87.25 102.22,84.4 106.56,79.43 C111.67,73.58 113.99,67.01 115.4,54.29 C115.755523,51.4200857 115.942511,48.5317986 115.96,45.64 L115.88,42.82 C115.668912,38.3282753 114.169191,33.992277 111.56,30.33 L118.75,18.58 L116.75,18.58 Z M86.04,68.14 C84.6965375,67.605566 83.6993978,66.4478382 83.37,65.04 C82.15,60.53 84.51,50.04 85.65,45.04 C86.97,39.2 91.74,39.61 91.94,39.63 C93.9354243,39.5072269 95.7431806,40.8014636 96.27,42.73 C97.53,46.17 96.52,52.31 96.18,54.32 L96.08,54.95 L96.08,55.14 C95.3,61.61 93.65,66.2 91.66,67.42 C90.0150535,68.5097214 87.9579719,68.7756278 86.09,68.14 L86.04,68.14 Z" id="Shape"></path> </g> </g> </svg> 