<?xml version="1.0" encoding="utf-8"?>
<!-- Generator: Adobe Illustrator 23.0.1, SVG Export Plug-In . SVG Version: 6.00 Build 0)  -->
<svg version="1.1" id="Layer_1" xmlns="http://www.w3.org/2000/svg" xmlns:xlink="http://www.w3.org/1999/xlink" x="0px" y="0px"
	 viewBox="0 0 1268 336.2" style="enable-background:new 0 0 1268 336.2;" xml:space="preserve">
<g>
	<path d="M637.01,71h-58.09L515,149.35V0h-48v71h-42.37l-38.48,119.14L346.19,71h-50.69l2.46,6.46
		c-15.11-6.62-32.88-9.02-52.78-9.02c-21.69,0-42.11,6.52-56.06,19.14c0.11-1.82,0.19-3.62,0.19-5.47c0-44.77-32.56-82.1-86.95-82.1
		H0v265h52V164h50.37c30.23,0,53.71-11.48,68.61-29.43c1.92,32.01,22.95,45.98,56.08,49.15l30.34,2.98
		c15.17,1.48,20.35,8.15,20.35,17.77c0,14.43-17.39,19.98-34.04,19.98c-14.8,0-35.52-2.22-51.43-18.13l-31.45,31.45
		c24.42,24.42,51.8,27.75,82.14,27.75c45.51,0,81.77-20.35,81.77-62.9c0-32.56-19.24-52.91-57.35-56.61l-30.34-2.96
		c-17.02-1.48-19.98-9.62-19.98-16.65c0-9.62,8.14-18.5,27.38-18.5c16.65,0,33.67,2.96,44.77,12.95l18.07-18.29l54.08,147.05
		l-8.14,23.83c-4.81,14.06-10.36,17.54-24.05,17.54H318v43h18.94c15.91,0,30.34-3.71,41.44-14.81c5.92-5.92,10.45-14.06,14.52-24.79
		L467,93.64V265h48v-59.04l20.3-23.1L584.62,265h59.57l-76-116.68L637.01,71z M99.78,118H52V46h47.78
		c23.31,0,38.11,14.73,38.11,36.18C137.89,103.64,123.09,118,99.78,118z"/>
	<path d="M704.72,68.32c-28.49,0-47.73,11.1-59.57,23.68c-17.39,18.13-21.83,39.96-21.83,74.74c0,35.15,4.44,56.98,21.83,75.11
		c11.84,12.58,31.08,23.68,59.57,23.68s48.1-11.1,59.94-23.68c17.39-18.13,21.83-39.96,21.83-75.11c0-34.78-4.44-56.61-21.83-74.74
		C752.82,79.42,733.21,68.32,704.72,68.32z M727.29,213.73c-5.55,5.55-12.95,8.51-22.57,8.51s-16.65-2.96-22.2-8.51
		c-9.99-9.99-11.1-27.01-11.1-46.99c0-19.98,1.11-36.63,11.1-46.62c5.55-5.55,12.58-8.51,22.2-8.51s17.02,2.96,22.57,8.51
		c9.99,9.99,11.1,26.64,11.1,46.62C738.39,186.72,737.28,203.74,727.29,213.73z"/>
	<path d="M952.62,68.32c-28.49,0-47.73,11.1-59.57,23.68c-17.39,18.13-21.83,40.15-21.83,74.93c0,24.79,2.22,43.06,9.62,58.06
		h-16.65c-12.21,0-17.19-6.31-17.19-17.78V0h-48v210.18c0,27.38,16.72,54.82,56.31,54.82h95.06c0.75,0,1.51,0.18,2.27,0.18
		c28.49,0,48.08-10.83,59.92-23.41c17.39-18.13,21.83-39.92,21.83-75.07c0-34.78-4.44-56.59-21.83-74.72
		C1000.72,79.4,981.11,68.32,952.62,68.32z M975.19,213.73c-5.55,5.55-12.95,8.51-22.57,8.51s-16.65-2.96-22.2-8.51
		c-9.99-9.99-11.1-27.01-11.1-46.99c0-19.98,1.11-36.63,11.1-46.62c5.55-5.55,12.58-8.51,22.2-8.51s17.02,2.96,22.57,8.51
		c9.99,9.99,11.1,26.64,11.1,46.62C986.29,186.72,985.18,203.74,975.19,213.73z"/>
	<path d="M1159,88.67c-13-14.8-26.65-20.35-47-20.35c-18.87,0-35.53,6.29-46.26,17.02c-18.13,18.13-19.61,42.55-19.61,76.22
		s1.48,58.46,19.61,76.59c10.73,10.73,26.76,17.02,45.63,17.02c18.87,0,33.63-5.18,45.63-19.24v19.61c0,19.61-9.74,39.96-38.6,39.96
		c-16.28,0-26.89-4.44-37.62-14.8l-29.91,30.34c19.98,19.24,40.56,25.16,70.16,25.16c51.8,0,84.96-33.67,84.96-79.92V71h-47V88.67z
		 M1125.67,211.88c-28.49,0-31.45-24.79-31.45-50.32s2.96-49.95,31.45-49.95s31.82,24.42,31.82,49.95S1154.16,211.88,1125.67,211.88
		z"/>
	<rect x="1219" y="71" width="48" height="194"/>
	<rect x="1219" width="49" height="38"/>
</g>
</svg>
