<?xml version="1.0" encoding="UTF-8"?> <!-- Generator: Adobe Illustrator 19.0.0, SVG Export Plug-In . SVG Version: 6.00 Build 0) --> <svg xmlns="http://www.w3.org/2000/svg" xmlns:xlink="http://www.w3.org/1999/xlink" x="0px" y="0px" viewBox="-133 271.9 329 299" style="enable-background:new -133 271.9 329 299;" xml:space="preserve"> <style type="text/css"> .st0{fill:#FFFFFF;} </style> <g id="Layer_1"> </g> <g id="Layer_2"> <rect x="-133" y="271.9" class="st0" width="329" height="299"></rect> <path d="M-63.9,298.7c9.6,4.6,9.7,4.9,4.7,12.1l-4.2,6.1l-2.5-1.7c-6-4-9.7-5.3-15.1-5.3c-6.7,0-10,1.9-10,5.8 c0,1.5,0.4,3.2,0.8,3.8c0.7,1,13.2,5.4,15.5,5.4c2.9,0,15.5,7,18,9.9c3.4,4.1,4,6.5,3.5,15c-0.4,7.7-3,12.2-9.7,16.7 c-10.6,7-32.1,4.5-44.8-5.2l-3.4-2.6l5.1-5.8l5.1-5.8l5,3.4c6.2,4.2,11.8,5.7,18.6,5.2c6.6-0.6,8.3-2,8.3-6.9 c0-4.7-0.8-5.2-17-10.3c-6.7-2.1-12.9-4.7-14.9-6.3c-11.9-9.4-7.9-29.3,7.2-35.2c4.2-1.7,6.9-2.1,14.2-1.8 C-71.8,295.5-69.5,296-63.9,298.7z"></path> <path d="M21.8,303.6l0.3,7.2l-11.3,0.3l-11.3,0.3l-0.3,28.7L-1,368.9h-8h-8l-0.2-28.8l-0.3-28.7l-11.2-0.3l-11.3-0.3V304 c0-3.7,0.3-7.1,0.7-7.4c0.4-0.4,14.2-0.6,30.7-0.5l30.1,0.3L21.8,303.6z"></path> <path d="M58,309.9c4.6,7.7,8.7,14,9.1,14c0.8,0,7-9.3,13.8-20.8l4.3-7.2h8.9c4.9,0,8.9,0.4,8.9,0.8c0,1-12.5,20.8-15,23.7 c-0.9,1.1-4.2,6.1-7.3,11l-5.7,9.1v14.2v14.2h-8h-8v-14.1c0-8.7-0.4-14.9-1.2-16.2c-0.6-1.2-6.7-10.6-13.5-20.9 c-6.8-10.3-12.6-19.4-12.9-20.3c-0.5-1.3,0.8-1.5,8.8-1.5h9.4L58,309.9z"></path> <polygon points="15,413.4 15,442.9 31.5,442.9 48,442.9 48,450.4 48,457.9 23.5,457.9 -1,457.9 -1,420.9 -1,383.9 7,383.9 15,383.9 "></polygon> <polygon points="91.8,421.1 92,457.9 83.5,457.9 75,457.9 75,420.9 75,383.8 83.3,384.1 91.5,384.4 "></polygon> <path d="M8,473.8c2,0.6,5.7,2.4,8.3,4.1l4.8,3l-1.6,2.8c-0.9,1.5-2.9,4.2-4.4,6l-2.7,3.4l-6.3-3.2c-11.2-5.7-22.1-4.2-22.1,3 c0,4,2.8,5.9,13.2,8.9C18,508,23,512.5,23,525c0,14.9-9.8,23.2-27.5,23.2c-9.1,0-18.2-2.7-25.7-7.5l-5.9-3.8l3.3-4.1 c1.8-2.3,4-5,4.9-6.2c1.6-2,1.6-2,6,1c6,4,9.1,5.2,15.2,5.9c9.9,1.2,16.3-4,12.3-10c-1.2-1.9-4.5-3.4-14.4-6.5 c-18.4-5.8-22.6-9.3-23.8-19.8c-1.4-11.3,4.9-20.6,16.6-24.4C-12.7,471.7,3.5,472.4,8,473.8z"></path> <path d="M97,480.4v7.5H86H75v29.5v29.5h-8c-6.9,0-8-0.2-8-1.8c-0.1-0.9-0.2-14.1-0.3-29.2l-0.2-27.5l-11.2-0.3L36,487.8v-7.4v-7.5 h30.5H97V480.4z"></path> <path d="M143.5,475.9c-1.5-2.9-1.7-3-8.9-3h-7.3l-4.3,10.2c-2.4,5.7-9.2,21.6-15.1,35.5c-5.9,13.8-11,26.1-11.4,27.3 c-0.6,2-0.4,2.1,7.6,1.8l8.2-0.3l3.5-8.3l3.5-8.2l15.5,0.2l15.5,0.3l3.5,8.2l3.5,8.3h8.3c4.6,0,8.4-0.2,8.4-0.4 C174,546.5,145.9,480.5,143.5,475.9z M134.5,516.9c-5.3,0-9.5-0.4-9.3-0.8c0.2-0.4,2.3-5.6,4.7-11.6c2.4-5.9,4.7-10.4,5.1-9.9 c0.8,0.8,7.2,16.1,8.4,20C144.1,516.9,144,516.9,134.5,516.9z"></path> </g> <g id="Layer_3"> </g> </svg> 