<?xml version="1.0" encoding="utf-8"?>
<!-- Generator: Adobe Illustrator 23.1.1, SVG Export Plug-In . SVG Version: 6.00 Build 0)  -->
<svg version="1.1" id="Lag_1" xmlns="http://www.w3.org/2000/svg" xmlns:xlink="http://www.w3.org/1999/xlink" x="0px" y="0px"
	 viewBox="0 0 590.7 101.2" style="enable-background:new 0 0 590.7 101.2;" xml:space="preserve">
<g>
	<path d="M3.9,30.7c0,16.5,13.8,22.8,34.8,30.6c14.2,5.2,16.9,9.8,16.9,16c0,10.4-9,18-21.5,18c-13.1,0-22.6-7.9-27.6-23l-0.1-0.4
		H3.9v26.3h4L8,97.8c1.5-3.5,2.4-4.3,3.2-4.3c0.3,0,1.1,0.4,2,0.8c3.2,1.6,9.8,5,22.7,5c26.7,0,33.9-16.7,33.9-26.6
		c0-16-15.8-23.2-27.7-27.3c-17.5-6-24.9-10.2-24.9-20.3c0-9.9,8.4-18,18.7-18c18.8,0,25.9,20.7,27.2,24.8l0.1,0.5H66L64.3,5.8h-2.6
		l-0.2,0.4c-0.8,1.7-1.6,2.7-2.4,3.6c-4.3-2.3-12.8-6.6-24-6.6C14.6,3.1,3.9,17,3.9,30.7z"/>
	<path d="M65.3,31.8h-1.6c-3.1-10.4-12-25.3-27.8-25.3c-11.3,0-19.4,8.9-19.4,18.6c0,10.6,7.7,14.8,25.3,20.9
		c12.6,4.3,27.3,11.5,27.3,26.7c0,9.6-6.9,25.9-33.2,25.9c-17,0-22.8-5.8-24.7-5.8C10,92.9,9,94,7.4,97.5H5.9l-1.5-25h1.5
		c5.3,16.1,15.4,23.4,28.2,23.4c13.5,0,22.1-8.6,22.1-18.6c0-7-3.8-11.6-17.4-16.6c-21.1-7.8-34.4-14.1-34.4-30
		c0-13,10.1-26.9,30.6-26.9c11.5,0,20.1,4.7,24.2,6.8C60,9.7,61,8.5,62,6.4h1.6L65.3,31.8z"/>
	<path d="M176.9,2.7H172c0,0-7.8,9.1-8.5,9.9c-8.6-6.2-19.1-9.5-30.5-9.5c-38.9,0-49.2,30.5-49.2,48.6c0,16.9,8.1,29.5,15.2,35.4
		c-0.7,0.9-12,14.1-12,14.1h6.2c0,0,8.8-10.2,9.5-11c3.7,2.7,13,9.1,29.2,9.1c28.7,0,49.5-20.5,49.5-48.8c0-13.8-4.8-25.6-14.2-34.9
		c0.7-0.8,11.1-12.8,11.1-12.8L176.9,2.7L176.9,2.7z M99.5,52.1c0-22.1,12.8-44.9,34.2-44.9c9.5,0,18.7,4.9,23.8,12.4
		c-0.7,0.8-50,57.7-51.1,59.1C103.3,73.1,99.5,64.5,99.5,52.1z M160,23.8c3.7,7.1,5.8,16.7,5.8,26.4c0,26.1-13.8,45-32.7,45
		c-11.8,0-19.5-6.7-23.9-12.5C109.8,81.9,158.7,25.2,160,23.8z"/>
	<path d="M295.6,5.2H262V8l0.6,0.1c9.3,0.9,16.4,3,16.4,20.8c0,0,0,41.7,0,44.7c-2.2-2.3-65.1-68.4-65.1-68.4h-22.7v2.7l0.5,0.1
		c4.5,0.9,6.1,2.7,12.1,9.2c0,0,0.2,0.2,0.3,0.3c0,0.5,0,56,0,56c0,13.8-1.8,18.8-12.4,20.6l-0.5,0.1V97H223v-2.7l-0.5-0.1
		c-9.5-1.6-13.7-8.2-13.7-21.5c0,0,0-47.7,0-50.7c2.2,2.3,72.7,76.5,72.7,76.5h2.2V28.8c0-13.3,1.9-20.2,12.1-20.7h0.6V5.2H295.6z"
		/>
	<path d="M307.3,5.2h-0.6V8h0.6c11,0.4,11.4,5.4,11.4,16.8v54c0,10.9-1.7,14.6-11.5,15.3h-0.6V97h44.8c38.7,0,52.5-24.3,52.5-47
		c0-6.6-1.3-19.2-10.4-29.5c-9-10.2-22.9-15.3-41.5-15.3H307.3z M333.4,75.4V18v-1.9c0-3.2,0-5.2,0.8-6.1c0.6-0.6,1.8-0.9,4.1-0.9
		h6.9c32.1,0,43.5,22.2,43.5,43c0,19-9.8,41.1-37.6,41.1h-6.2C336.9,93.2,333.4,91.5,333.4,75.4z"/>
	<path d="M453.5,4.2H452l-0.2,0.2c-3.3,4-5.9,6-9.6,8.2l-0.5,0.3l0.2,0.5c0.8,2.2,0.3,3.8-0.6,6l-23,56.3
		c-4.6,11.1-8.9,14.5-15.4,18.7l-0.3,0.2V97H430v-2.7l-0.5-0.1c-4.1-0.7-6.7-2.1-8-4.4c-0.6-1.1-1-2.5-1-4.2c0-2.7,0.8-6.1,2.5-10.5
		c0,0,4.9-12.5,5.2-13.3c0.8,0,32.9,0,33.7,0c0.3,0.8,6,14.6,6,14.6c1.7,4,2.5,7.2,2.5,9.8c0,1.6-0.3,2.9-1,4
		c-1.5,2.4-4.8,3.7-10.4,4h-0.6V97H500v-2.8l-0.6-0.1c-3.9-0.4-9.7-3.5-15.1-16.6L454,4.2H453.5z M445.1,20.9
		c1.1,2.6,14.7,35.5,15.4,37.2c-1.8,0-28.9,0-30.7,0C430.5,56.5,444,23.6,445.1,20.9z"/>
	<path d="M499,52.2c0,27.3,20.2,47.1,48.1,47.1c9.6,0,25.5-3.4,37.8-10.9l1.8-1.2V70.8c0-5.7,0-16.6,0-16.6h-33c0,0,0,1.6,0,3.6
		c8.8,0,11.6,2.9,14,5.4c2.4,2.6,2.7,6.8,2.7,7.9v6.3c0,2,0,6.5-2.8,10c-4.2,5.2-10.5,7.8-18.9,7.8c-25.4,0-34.5-21-34.5-40.6
		c0-21.9,9.3-47.4,35.6-47.4c21.2,0,28.5,15.4,33.9,26.6l0.2,0.4h2.7V7.5l-3.2-0.1l-0.3,0.7c-0.6,1.4-1.8,4-3.2,4
		c-0.4,0-1.6-0.6-3-1.4c-4.8-2.6-13.8-7.6-29-7.6C514.3,3.1,499,28.6,499,52.2z"/>
</g>
</svg>
