<?xml version="1.0" encoding="utf-8"?>
<!-- Generator: Adobe Illustrator 23.1.1, SVG Export Plug-In . SVG Version: 6.00 Build 0)  -->
<svg version="1.1" id="Layer_1" xmlns="http://www.w3.org/2000/svg" xmlns:xlink="http://www.w3.org/1999/xlink" x="0px" y="0px"
	 viewBox="0 0 314.6 198.4" style="enable-background:new 0 0 314.6 198.4;" xml:space="preserve">
<style type="text/css">
	.st0{fill:#E30613;}
	.st1{fill:#FFFFFF;}
</style>
<rect class="st0" width="314.6" height="198.4"/>
<g>
	<rect x="78.7" y="13.7" class="st1" width="25.2" height="138"/>
	<polygon class="st1" points="113.3,13.7 138.6,13.7 138.6,134.2 151.5,134.2 151.5,151.7 113.3,151.7 	"/>
	<polygon class="st1" points="196.7,13.7 236,13.7 236,32.4 222,32.4 222,67.6 236,67.6 236,87.5 222,87.5 222,134.2 236,134.2 
		236,151.7 196.7,151.7 	"/>
	<path class="st1" d="M241.7,13.7c0,0,24.4,0,41.7,0c13.7,0,16.7,9.3,16.7,23.6c0,28,0,80.1,0,92.2c0,12.1-5.8,22.2-16.2,22.2
		c-16.2,0-42.3,0-42.3,0V13.7z M267,134.2c0,0,8.5,2.5,8.5-5.8c0-36.2,0-54.6,0-88.9c0-10.2-8.5-7.1-8.5-7.1V134.2z"/>
	<path class="st1" d="M13.7,13.7c16.5,0,30.9,0,45.3,0c12.3,0,12.3,9.9,12.3,23.9c0,13.8,0,12.8,0,26.1c0,10.3-9.3,13-9.3,13.8
		c0,0.8,9.3,3.7,9.3,14c0,18.1,0,24.6,0,44c0,9.7-2.7,16.2-12.3,16.2c-13.2,0-32.7,0-45.3,0C13.7,106.7,13.7,13.7,13.7,13.7z
		 M46.3,63c0-7.1,0-18.7,0-26.1c0-2.7,0-4.5-2.6-4.5c-2.5,0-4.7,0-4.7,0v35.1c0,0,2,0,5.2,0C46.5,67.6,46.3,65.2,46.3,63z
		 M46.3,128.7c0-7.1,0-29,0-36.4c0-2.7,0-4.5-2.6-4.5c-2.5,0-4.7,0-4.7,0v45.4c0,0,2,0,5.2,0C46.5,133.2,46.3,130.8,46.3,128.7z"/>
	<polygon class="st1" points="154.9,13.7 180.1,13.7 180.1,134.2 193,134.2 193,151.7 154.9,151.7 	"/>
	<path class="st1" d="M75.4,182.9h25.4l-4.7,5H65.9v-29.1h9.5V182.9z"/>
	<path class="st1" d="M156.6,187.9h-9.5l-5.1-6.5H115l-5.4,6.5h-8.8l24.2-29.1h6.8L156.6,187.9z M128.2,164.5l-9.5,11.9h19.6
		L128.2,164.5z"/>
	<path class="st1" d="M173.2,158.9c27.4,0,29.8,5.6,29.8,14.4c0,9.6-2.2,14.7-29.8,14.7h-13.5v-29.1H173.2z M168.2,183h5.1
		c17.3,0,22.3-0.7,22.2-9.9c-0.2-10.5-13.4-8.5-22.2-8.5h-5.1V183z"/>
	<path class="st1" d="M247.2,164.5h-27v6.4h21v5.4h-21v6.5h27v5H212v-29.1h35.2V164.5z"/>
	<path class="st1" d="M298.2,164.5h-17.9v23.4h-8.6v-23.4h-17.3v-5.8h43.8V164.5z"/>
	<path class="st1" d="M39.5,158.8c15.5,0,20.5,2.6,20.5,7.7c0,3.7-2.4,6.9-7.3,6.9c4.9,0,7.4,2.2,7.2,6.8c-0.3,5.2-4.6,7.7-20.1,7.7
		l-26.3,0v-29.1L39.5,158.8z M23.5,170.9l16.3,0c8.1,0,11.7,0.3,11.7-3.3c0-3.2-1.9-3.2-11.7-3.2l-16.3,0L23.5,170.9z M23.5,182.9
		l16.3,0c10,0,11.9,0,11.9-3.5c0-3-2-3.1-11.9-3.1l-16.3,0V182.9z"/>
</g>
</svg>
