<?xml version="1.0" encoding="UTF-8"?> <!-- Generator: Adobe Illustrator 19.0.0, SVG Export Plug-In . SVG Version: 6.00 Build 0) --> <svg xmlns="http://www.w3.org/2000/svg" xmlns:xlink="http://www.w3.org/1999/xlink" id="Layer_1" x="0px" y="0px" viewBox="-85 345.7 423.8 151.2" style="enable-background:new -85 345.7 423.8 151.2;" xml:space="preserve"> <style type="text/css"> .st0{stroke:#181716;} </style> <title>LOGO</title> <path d="M24.4,304.3"></path> <path class="st0" d="M24.4,304.3"></path> <rect x="198.9" y="348.3" width="24.1" height="124.3"></rect> <polygon points="194.7,482.3 190.2,487.7 185.8,482.3 181.8,482.3 181.8,496.7 186,496.7 186,488.3 190,493.2 190.3,493.2 194.3,488.3 194.3,496.7 198.6,496.7 198.6,482.3 "></polygon> <path d="M210.9,486l2.1,5.2h-4.2L210.9,486z M208.5,482.3l-6.4,14.4h4.5l1.2-3h6.3l1.2,3h4.5l-6.4-14.4H208.5L208.5,482.3z"></path> <path d="M236.3,495.7l-0.8,0.3l-0.6,0.2l-0.9,0.2c-0.7,0.2-1.3,0.3-2,0.4c-0.7,0.1-1.4,0.1-2.1,0.1c-1.4,0-2.8-0.3-4.1-0.8 c-1.2-0.5-2.3-1.4-3-2.5c-0.8-1.2-1.2-2.7-1.1-4.1c0-1.1,0.2-2.1,0.6-3.1c0.3-1,1-1.8,1.8-2.4c0.6-0.5,1.3-0.9,2-1.2 c0.6-0.3,1.3-0.4,2-0.5c0.7-0.1,1.4-0.1,2.1-0.1c1.1,0,2.1,0.1,3.1,0.3c0.8,0.2,1.7,0.4,2.7,0.8v3.4c-0.7-0.4-1.4-0.7-2.1-1 c-0.9-0.3-1.8-0.4-2.7-0.4c-1-0.1-2.1,0.2-3,0.7c-0.7,0.4-1.2,1-1.6,1.7c-0.3,0.6-0.4,1.3-0.4,1.9c0,0.7,0.2,1.4,0.5,2 c0.4,0.6,0.9,1.2,1.5,1.5c0.8,0.4,1.6,0.6,2.5,0.6c0.6,0,1.2-0.1,1.8-0.2v-1.7h-2v-2.9h5.8L236.3,495.7L236.3,495.7z"></path> <path d="M248.5,486l2.1,5.2h-4.2L248.5,486z M246,482.3l-6.4,14.4h4.5l1.2-3h6.3l1.2,3h4.5l-6.4-14.4H246L246,482.3z"></path> <path d="M271.2,492.5c0,0.8-0.2,1.7-0.7,2.3c-0.5,0.7-1.2,1.2-1.9,1.5c-0.9,0.4-1.9,0.5-2.9,0.5c-0.3,0-0.7,0-1.1-0.1 c-0.6-0.1-1.2-0.2-1.7-0.3c-0.8-0.2-1.5-0.4-2.2-0.8v-3.5c0.7,0.4,1.4,0.8,2.1,1.1c0.7,0.3,1.5,0.5,2.3,0.5c0.5,0.1,1-0.1,1.4-0.4 c0.2-0.2,0.3-0.4,0.3-0.7c0-0.4-0.2-0.8-0.6-1c-0.5-0.3-1.1-0.6-1.6-0.8c-0.7-0.3-1.4-0.7-2.1-1.1c-0.6-0.4-1.1-0.9-1.5-1.5 c-0.4-0.6-0.6-1.4-0.6-2.1c0-1.6,0.9-3,2.3-3.6c0.9-0.4,1.9-0.6,2.9-0.6c0.8,0,1.5,0.1,2.2,0.2c0.6,0.1,1.1,0.3,1.7,0.5 c0.3,0.1,0.6,0.3,0.9,0.5v3.4c-0.6-0.4-1.3-0.8-2-1.1c-0.7-0.3-1.5-0.5-2.3-0.5c-0.4,0-0.8,0.1-1.2,0.3c-0.2,0.2-0.4,0.5-0.4,0.8 c0,0.3,0.1,0.6,0.4,0.7c0.4,0.3,0.8,0.6,1.3,0.8c0.9,0.4,1.8,0.9,2.7,1.4c0.6,0.4,1.1,0.9,1.6,1.4 C271,491.1,271.2,491.8,271.2,492.5"></path> <rect x="276.3" y="482.3" width="4.4" height="14.4"></rect> <polygon points="297.8,482.3 297.8,490.3 290.4,482.3 286.5,482.3 286.5,496.7 290.8,496.7 290.8,488.6 298.3,496.7 302.1,496.7 302.1,482.3 "></polygon> <polygon points="307.9,482.3 307.9,496.7 318.8,496.7 318.8,493.8 312.3,493.8 312.3,490.7 318.3,490.7 318.3,487.8 312.3,487.8 312.3,485.2 318.6,485.2 318.6,482.3 "></polygon> <polygon points="322.8,482.3 322.8,485.8 328,485.8 328,496.7 332.4,496.7 332.4,485.8 337.7,485.8 337.7,482.3 "></polygon> <path d="M63.4,345.7c27.6,0,58.5,20.4,58.5,64.3s-33.3,64.2-58.5,64.2c-28.7,0-58.5-20.8-58.5-64.4S34.5,345.7,63.4,345.7 M63.4,453.9c15.7,0,34.3-13.9,34.3-44S83.4,366,63.4,366c-18.3,0-34.3,13.8-34.3,43.8S44.9,453.9,63.4,453.9"></path> <path d="M155.7,453.5h-1.6v-0.2c1-0.1,1.7-0.9,1.6-1.9V348.3h-24.1v124.3h56.8v-19H155.7z"></path> <path d="M-44.9,453.5h-17.6v-0.2c0.9-0.1,1.7-0.9,1.6-1.8V420c0-0.9-0.7-1.7-1.6-1.8V418H-43c11.9,0,19.2,8.9,19.2,17.6 C-23.7,446.2-31.1,453.5-44.9,453.5 M-62.5,399c0.9-0.1,1.7-0.9,1.6-1.8v-29c0-0.9-0.7-1.7-1.6-1.8v-0.2H-49 c14.4,0,20.9,6.3,20.9,16.4c0,10.2-6.5,16.6-22.8,16.6h-11.6V399z M-22,405.7c11.5-5.3,16-14.9,16-26c0-15.3-11.7-31.5-38.5-31.5 H-85v124.3h40.9c27,0,42.5-16.7,42.5-36.6C-1.6,421.8-7.5,412.1-22,405.7"></path> <path d="M300.2,405.8v19h17v0.2c-0.9,0.1-1.7,0.9-1.6,1.8v18.5c-5.6,5.3-13.1,8.4-20.8,8.5c-18.5,0-34.3-13.9-34.3-44 c0-31.1,21-43.8,39.3-43.8c11.3,0,23.8,4.5,32.8,10.5v-22.1c-10.6-5.9-22.6-8.9-34.8-8.8c-28.9,0-62.5,20.6-62.5,64.2 s30.8,64.3,59.5,64.3c14.4,0,31.7-6.6,43.9-20.4v-48.1H300.2z"></path> </svg> 