<svg version="1.1" id="Layer_1" xmlns="http://www.w3.org/2000/svg" xmlns:xlink="http://www.w3.org/1999/xlink" x="0px" y="0px"
	 width="566.9px" height="270.1px" viewBox="0 0 566.9 270.1" style="enable-background:new 0 0 566.9 270.1;" xml:space="preserve"
	>
<style type="text/css">
<![CDATA[
	.st0{fill:#FFFFFF;}
	.st1{fill:#D71920;}
]]>
</style>
<g>
	<polygon class="st1" points="0,0 0,270.1 566.9,270.1 566.9,0 0,0 	"/>
	<polygon class="st0" points="106.1,53.6 58.3,53.6 58.3,69.8 99.4,69.8 99.4,95.3 58.3,95.3 58.3,133.7 27.3,133.7 27.3,26.4
		106.1,26.4 106.1,53.6 	"/>
	<path class="st0" d="M158.4,133.7c-0.9-3.2-1.2-5.4-1.4-8.3c-2.6,2.7-4.7,4.7-7,6.2c-4.7,2.7-10.7,4.2-17.4,4.2
		c-16.8,0-26.7-8.9-26.7-24c0-10.5,5-17,14.5-20.4c4.7-1.6,8.7-3.1,19.9-4.8c3.1-0.5,4.9-0.7,5.5-0.8c4.3-0.6,6-1.1,7.5-2.1
		c1.5-1,2.3-2.9,2.3-5c0-4.7-3.1-5.9-9.3-5.9c-6.9,0-11.3,3.4-10.9,9.7h-25.9c-1.4-18.8,12.5-28.8,36.8-28.8c6.9,0,14.2,1,19.7,2.6
		c7,1.9,12.8,6.4,15.3,11.7c1.5,3.7,2.7,6.4,2.7,14.3c0,1.6,0.5,3.2,0.3,4.8v9l-0.2,7.2c0,4.2,0,6.9,0,8.2c0,5-0.2,10.6,0.3,14.3
		c0.4,2.6,1.4,3.9,3,7.7H158.4L158.4,133.7z M146.4,102.5l-3.8,1c-5.4,1.3-9.6,3.4-9.6,7.5c0,4.8,4.9,7.1,9.9,7.1
		c4.9,0,10.2-4.2,11.1-5.5c1.6-2,2.5-4.7,2.5-9.7v-4.7C153.5,100.3,151.1,101.6,146.4,102.5L146.4,102.5z"/>
	<path class="st0" d="M222.2,66c5.5-8.4,12.8-12.2,23.1-12.2c4.9,0,9.3,1.1,13,3.2c3.7,1.9,5.4,3.9,8,9.2c2.6-3.7,3.8-5,6.4-6.9
		c4.7-3.5,10.7-5.5,17.1-5.5c16.4,0,26.9,11.3,26.9,28.8v51.2h-28.3v-44c0-8.5-2.7-12.4-8.8-12.4c-6.6,0-9.5,4-9.5,13.2v43.2h-28.3
		V88.8c0-7.7-2.7-11.4-8.8-11.4c-6.3,0-9.6,4.5-9.6,13v43.3H195V56h27.2V66L222.2,66z"/>
	<path class="st0" d="M354.8,47.1h-28.2V26.4h28.2V47.1L354.8,47.1z M354.8,133.7h-28.2V56h28.2V133.7L354.8,133.7z"/>
	<polygon class="st0" points="395.3,133.7 367,133.7 367,26.4 395.3,26.4 395.3,133.7 	"/>
	<path class="st0" d="M435.8,47.1h-28.3V26.4h28.3V47.1L435.8,47.1z M435.8,133.7h-28.3V56h28.3V133.7L435.8,133.7z"/>
	<path class="st0" d="M520.4,117.8c-7.5,12.2-18.9,18-34.8,18c-25.1,0-41.7-16.1-41.7-40.2c0-24.3,17-41.9,40.6-41.9
		c24.9,0,40.8,17.7,40.8,45.1v2.4h-54.4c0.5,10,5.7,15.6,14.5,15.6c5.7,0,9-1.9,11.9-6.4h26.4C522.9,113.6,522.2,114.7,520.4,117.8
		L520.4,117.8z M484.7,72.9c-7.6,0-12.1,4.5-13.6,13.4h26.6C496.9,77.5,492.4,72.9,484.7,72.9L484.7,72.9z"/>
	<path class="st0" d="M94.1,212.1c0,13-2.3,23.1-8.6,29.9c-6.9,7.5-15.9,11-28.8,11.2c-19.3,0.4-35.4-11.2-35.4-36.6v-6.9v-1.3h26.9
		v3.2c0,7.1,0.2,9.3,0.8,11.9c0.9,3.4,2.7,5.3,6.7,5.3c5.5,0,7.8-4.5,7.8-12.1v-73.1h30.7V212.1L94.1,212.1z"/>
	<path class="st0" d="M185.5,211.9c0,24.3-16.6,41.2-40.5,41.2c-24,0-40.5-16.8-40.5-40.9c0-24.3,16.7-41.2,40.8-41.2
		C169.1,171,185.5,187.8,185.5,211.9L185.5,211.9z M132.8,212.1c0,13,4.1,19.7,12.2,19.7c8.2,0,12.2-6.4,12.2-19.7
		c0-13-4.1-19.5-12.5-19.5C136.7,192.6,132.8,199,132.8,212.1L132.8,212.1z"/>
	<path class="st0" d="M270.9,251h-27.2v-10c-5.5,8.4-12.7,12.1-22.8,12.1c-7.2,0-13.4-2.1-18.2-6c-6.4-5.5-8.7-12.5-8.7-25.9v-48
		h28.1v40.1v5c0.1,1.9,0.3,3.7,0.9,5.3c1.1,4,4.3,5.9,9.3,5.9c3.5,0,6.3-1.4,8.1-4.3c1.7-2.6,2.1-5.6,2.1-12.5v-39.4h28.3V251
		L270.9,251z"/>
	<path class="st0" d="M333.4,198.1c-4.2-0.7-8-1.3-11.2-0.1c-6.7,2.5-11.8,5.6-11.8,17.8V251h-28.3v-77.8h27.2v12.1
		c2.5-5,4-6.9,7.2-9.5c4-3.1,7.4-4.2,12.4-4.2c2.7,0,0.4-0.5,4.4,0.4V198.1L333.4,198.1z"/>
	<path class="st0" d="M366.4,184.8c3-3.9,4.4-6.3,7.2-8.1c4.4-3,9.6-5.7,15.4-5.7c9,0,17.3,4,21.9,10.3c3.7,5.1,4.9,10.8,4.9,22.1
		V251h-28.3v-43.6c0-8.9-2-11.9-8.9-11.9c-7,0-10.6,4-10.6,12.7V251h-28.3v-77.8h26.9V184.8L366.4,184.8z"/>
	<polygon class="st0" points="541.2,251 512.9,251 512.9,143.6 541.2,143.6 541.2,251 	"/>
	<path class="st0" d="M476.3,251c-0.9-3.2-1.2-5.4-1.4-8.3c-2.6,2.7-4.7,4.7-7,6.2c-4.7,2.7-10.7,4.2-17.4,4.2
		c-16.8,0-26.7-8.8-26.7-24c0-10.4,5-17,14.5-20.4c4.7-1.6,8.7-3.1,19.8-4.9c3.1-0.5,4.9-0.6,5.5-0.8c4.3-0.6,6-1.1,7.5-2.1
		c1.5-1,2.3-2.9,2.3-5c0-4.7-3.1-6-9.3-6c-6.9,0-11.3,3.4-10.9,9.7h-25.9c-1.4-18.8,12.5-28.7,36.8-28.7c6.9,0,14.2,1,19.7,2.6
		c7,1.9,12.8,6.4,15.3,11.7c1.5,3.7,2.7,6.4,2.7,14.4c0,1.6,0.5,3.2,0.3,4.8v9l-0.1,7.3c0,4.2,0,6.9,0,8.2c0,5-0.2,10.6,0.2,14.3
		c0.4,2.6,1.4,3.9,3,7.7H476.3L476.3,251z M464.3,219.8l-3.8,1c-5.3,1.3-9.6,3.4-9.6,7.5c0,4.8,4.9,7.1,9.9,7.1
		c4.9,0,10.2-4.2,11.2-5.4c1.5-2,2.5-4.7,2.5-9.7v-4.7C471.3,217.5,469,218.8,464.3,219.8L464.3,219.8z"/>
</g>
</svg>
