<?xml version="1.0" encoding="utf-8"?>
<!-- Generator: Adobe Illustrator 16.0.0, SVG Export Plug-In . SVG Version: 6.00 Build 0)  -->
<!DOCTYPE svg PUBLIC "-//W3C//DTD SVG 1.1//EN" "http://www.w3.org/Graphics/SVG/1.1/DTD/svg11.dtd">
<svg version="1.1" id="Calque_1" xmlns="http://www.w3.org/2000/svg" xmlns:xlink="http://www.w3.org/1999/xlink" x="0px" y="0px"
	 width="641.1px" height="213.7px" viewBox="0 0 641.1 213.7" style="enable-background:new 0 0 641.1 213.7;" xml:space="preserve"
	>
<style type="text/css">
<![CDATA[
	.st0{clip-path:url(#SVGID_2_);}
	.st1{fill:#FFFFFF;}
]]>
</style>
<line class="st1" x1="-168.8" y1="-123.7" x2="-168.8" y2="-123.7"/>
<g>
	<defs>
		<path id="SVGID_1_" d="M-43.3-39.2 M-27.5-23.4h691.7v870.2H-27.5V-23.4z"/>
	</defs>
	<clipPath id="SVGID_2_">
		<use xlink:href="#SVGID_1_"  style="overflow:visible;"/>
	</clipPath>
	<path class="st0" d="M88.9,154.6v54.6H6.3v-1.8h14.6V7.7H6.3V5.9h81.1v54.3h-1.8c0-47.3-18.2-51-40.8-51v86.6v7.8
		c21.3,0,23.4-15.6,23.4-37.4H70v75.9h-1.8c0-21.8-2.1-36.7-23.4-36.7v12.2v81.4v6.8c22.6,0,42.4-4.9,42.4-51.2H88.9z"/>
	<path class="st0" d="M228,207.4c22.6,0,42.4-6.5,42.4-52.8h1.8v54.6h-82.7v-1.8h14.6V7.7h-14.6V5.9h53v1.8H228v76.7V207.4z"/>
	<path class="st0" d="M411.3,207.4c22.6,0,42.4-6.5,42.4-52.8h1.8v54.6h-82.7v-1.8h14.6V7.7h-14.6V5.9h53v1.8h-14.6v76.7V207.4z"/>
	<path class="st0" d="M638.8,154.6v54.6h-82.7v-1.8h14.6V7.7h-14.6V5.9h81.1v54.3h-1.8c0-47.3-18.2-51-40.8-51v86.6v7.8
		c21.3,0,23.4-15.6,23.4-37.4h1.8v75.9H618c0-21.8-2.1-36.7-23.4-36.7v12.2v81.4v6.8c22.6,0,42.4-4.9,42.4-51.2H638.8z"/>
</g>
<path class="st1" d="M501.3,117.6c0-2.1,1.7-3.9,3.9-3.9c2.1,0,3.9,1.7,3.9,3.9c0,2.1-1.7,3.9-3.9,3.9
	C503.1,121.5,501.3,119.7,501.3,117.6z M508.6,117.6c0-1.9-1.5-3.4-3.4-3.4c-1.9,0-3.4,1.5-3.4,3.4c0,1.9,1.5,3.4,3.4,3.4
	C507.1,121,508.6,119.5,508.6,117.6z M507.1,119.8h-0.6l-1.2-2h-1v2h-0.5v-4.2h1.9c1.1,0,1.5,0.4,1.5,1.1c0,0.8-0.6,1.1-1.3,1.2
	L507.1,119.8z M505.1,117.4c0.6,0,1.6,0.1,1.6-0.7c0-0.5-0.6-0.6-1.1-0.6h-1.3v1.3H505.1z"/>
</svg>
