<?xml version="1.0" encoding="utf-8"?>
<!-- Generator: Adobe Illustrator 16.0.0, SVG Export Plug-In . SVG Version: 6.00 Build 0)  -->
<!DOCTYPE svg PUBLIC "-//W3C//DTD SVG 1.1//EN" "http://www.w3.org/Graphics/SVG/1.1/DTD/svg11.dtd">
<svg version="1.1" id="Layer_1" xmlns="http://www.w3.org/2000/svg" xmlns:xlink="http://www.w3.org/1999/xlink" x="0px" y="0px"
	 width="590px" height="219px" viewBox="0 0 590 219" style="enable-background:new 0 0 590 219;" xml:space="preserve">
<g>
	<path d="M393.2,49.7c0.7,15,13.5,23.6,27.3,23.6c15.2,0,27.6-7.4,29-24c0.9-10.6-6.7-14.9-8.4-15.4v-0.2c9.9,0,19.9-3.4,19.9-15.8
		c0-6.9-4.2-12.5-11.3-12.5c-4.6,0-8.4,3.4-8.4,8.2c0,2.7,1.7,5.4,4.5,5.4c2.5,0,4.1-1.1,4.1-3.9c0-2-1.8-3.2-3.6-3.2
		c-1.3,0-2.4,1-2.7,1.1c0-3.7,2.7-6.1,6.1-6.1c4.3,0,7.9,4,7.9,8.5c0.3,5.4-3.2,10.6-9,10.6c-2.2,0-10.5,0.5-12.3,0.7
		c-8.9,0.8-15.2,8.7-15.2,17.6c0,6.4,3.9,13.1,10.7,13.1c5.1,0,9.1-3.2,9.1-8.7c0-4.2-2.5-7.5-6.8-7.5c-3,0-5.7,2.6-5.7,5.6
		c0,2,1.2,3.9,3.3,3.9c1.7,0,3.4-1.2,3.4-3c0-2-1.1-2.8-2.8-3.1c-0.4-0.1-0.5-0.2-0.4-0.4c0.3-0.8,1.5-1,2.1-1c2.4,0,5,1.1,5,5.6
		c0,4.1-3.1,6.9-7.1,6.5c-4.8-0.4-8.3-4.3-8.3-9.3c0-7.4,4.9-11.8,12-11.8c8.4,0,12.2,7.4,12.2,15.1c0,11.8-11,18.4-21.3,18.4
		c-18.8,0-27.3-15.8-27.3-24.4c0-8,3-10.7,6.5-12.3c1.5,2.3,3.4,4.8,6.8,4.8c2,0,4.4-0.7,4.4-3.2c0-3.6-4-4.5-6.8-4.5
		c-1.9,0-3.1,0.4-3.2,0.4c-0.6-1.4-1.5-3.6-1.5-6.8c0-7.4,5.5-14.1,12.8-14.1c4.8,0,9.5,2.9,9.5,8.5c0,3.4-2.4,5.8-5.7,5.8
		c-2.4,0-4.5-1.2-5.6-3.5h-0.2c0,0.3-0.1,1.1-0.1,1.9c0,3.4,3.1,6.6,6.8,6.6c5.3,0,8.6-4.7,8.6-9.8c0-8.1-6.2-11.4-13.4-11.4
		c-8.2,0-14.9,7.3-14.9,15.6c0,2.1,0.6,6,1.5,7.8C398.1,31.7,392.7,40,393.2,49.7 M293.7,8.3c3.5,0,6.8,0.5,6.8,5.3v51
		c0,4.8-2.2,5.3-6.7,5.3v2c8.9-0.1,17.8,0.6,26.8,0.6c26.3,0,39.9-11,39.9-32.9c0-18.1-9.1-33.9-38-33.9c-9.7,0-19.3,0.5-28.9,0.6
		V8.3z M309.9,14.9c0-6.3,3-7.1,9.9-7.1c20.6,0,30.5,12,30.5,32.8c0,18.1-11,30.1-28.7,30c-7.2-0.1-11.6-0.3-11.6-7.6V14.9z
		 M253.7,17.5l10.4,26.9h-20L253.7,17.5z M244.3,71.9v-2c-2.6-0.4-7.5-0.4-7.5-4.1c0-2.5,5.4-15.4,6.3-18.8h22.1
		c1.2,4.2,6.4,16.4,6.4,19.1c0,3.8-5,3.8-7.8,3.8v2h24.1v-2c-5-0.8-6.1-3.3-8.1-8.7L258.2,4.5c-2.2,2.8-4.4,5.6-7.5,7.4l1.7,2.9
		l-18.8,50.6c-0.9,2.6-3.2,4.4-5.9,4.6v2H244.3z M161.6,71.9v-2c-5.2,0-8.5-1.3-8.5-5.3V15.4h0.2l25.9,56.6h1.7l24-57.2h0.2v49.9
		c-0.2,4.2-1.3,4.8-7.9,5.3v2h24v-2c-4.3,0-6.8-0.5-6.8-5.3V14.5c0-5.2,2-5.8,6.8-6.2v-2h-14.6l-23,53.8L159.2,6.3h-15.9v2
		c3.5,0.4,7,0.4,7.3,4.5v51.8c0,4.8-3.3,5.3-8.2,5.3v2H161.6z"/>
	<path d="M572,84.2h-2.3c-1.1,2.3-2.8,6.5-5.5,6.5c-3.4,0-16.7-12.5-45.1-12.5c-47.6,0-68.2,35.6-68.2,67.6
		c0,39.9,30.2,64.8,67,64.8c13.5,0,35.7-4.7,52.9-15.1v-27c0-9.1,5.5-13.5,15.3-16.9v-2.1h-51.2v2.1c10.7,2.8,16.7,9.5,16.7,19.3v10
		c0,3.5-0.2,9.7-4.1,14.6c-4.4,5.4-12.4,11.2-27.4,11.2c-34.8,0-49.6-27.6-49.6-57.6c0-27.9,11.9-67.1,51.2-67.1
		c30.4,0,41,21.8,48.7,37.6h2.3L572,84.2z M447.8,205.3c-17.9-2.1-19.4-7.7-19.4-22.8v-76.4c0-14.9,1.2-20.7,19.4-22.8v-2.1h-57.6
		v2.1c17.9,2.1,19.4,7.7,19.4,22.8v76.4c0,14.9-1.2,20.7-19.4,22.8v2.1h57.6V205.3z M265.7,81.2v2.1c13.7,0.7,16.5,10.2,16.5,25.1
		V186c0,10-2.5,17.4-16.5,19.3v2.1h109.6l11.2-39H384c-14.6,29-30,35.5-54.7,35.5h-5.2c-15.1,0-23.1-5.3-23.1-23.2V107
		c0-13.3,0.7-22.3,19.4-23.7v-2.1H265.7z M194.5,82.1c32.5,0,46,30.7,46,63c0,26.7-12.8,61.6-48.7,61.6c-32.3,0-46.7-36.3-46.7-63.7
		C145.1,121.2,159.5,82.1,194.5,82.1 M194.1,78.2c-48.2,0-69.3,34.9-69.3,64.1c0,46,32.9,68.3,67.2,68.3c40.3,0,68.8-29.8,68.8-65.3
		C260.7,106.1,234.4,78.2,194.1,78.2 M58.6,143.9c25.6,0,38,13,38,32.1c0,17.9-7.8,27.9-32.7,27.9c-17.4,0-19.7-2.5-19.7-22.5v-37.6
		H58.6z M44.3,85.4c2.3-0.4,4.3-0.7,8.7-0.7c28.8,0,35.9,15.3,35.9,26.7c0,8.8-5.9,29-30.6,29h-14V85.4z M9.2,81.2v2.1
		c13,0,16.2,5.4,16.2,19.8V185c0,10.2-0.4,19.7-16.2,20.4v2.1H70c33.6,0,46.4-15.3,46.4-34.1c0-17.7-10.1-28.3-34.6-32.5
		c20.1-5.8,26.3-18.1,26.3-29.5c0-15.3-13-30.2-44.2-30.2H9.2z"/>
</g>
</svg>
