<?xml version="1.0" encoding="utf-8"?>
<!-- Generator: Adobe Illustrator 23.1.1, SVG Export Plug-In . SVG Version: 6.00 Build 0)  -->
<svg version="1.1" id="Layer_1" xmlns="http://www.w3.org/2000/svg" xmlns:xlink="http://www.w3.org/1999/xlink" x="0px" y="0px"
	 viewBox="0 0 284.5 34.6" style="enable-background:new 0 0 284.5 34.6;" xml:space="preserve">
<g>
	<path d="M6.9,6.2c0,3.9,3.5,5.2,7.4,6.5c5.3,1.7,11.5,3.4,11.5,11.4c0,6.8-6,10.5-12.9,10.5c-3.9,0-6.7-1.4-8.7-1.4
		c-1.3,0-2.3,0.6-3.4,1.4L0,23.4h0.1c3.2,6.1,8,10.2,12.8,10.2c3.9,0,6.5-2,6.5-5.7c0-4.6-4.8-5.7-9.5-7.3C5.1,19,0.3,16.9,0.3,10.2
		C0.3,4,5.3,0,12.6,0c3.6,0,6.1,1.3,8,1.3c1.2,0,2.1-0.7,2.9-1.3l0.2,9.7h-0.1c-2.9-5.1-6-8.7-11-8.7C9.4,1,6.9,2.9,6.9,6.2z"/>
	<path d="M39.9,20.2v8.2c0,3.1,0.8,4.1,3.7,5.6v0.1H28.2V34c2.1-1.4,2.6-2.6,2.6-5.8V6.3c0-3.2-0.5-4.3-2.6-5.7V0.5h17.6
		C53.9,0.5,59,4,59,10.3c0,6.3-5.1,9.8-13.1,9.8H39.9z M42.7,18.9c5.1,0,7.5-3.5,7.5-8.5c0-5-2.4-8.5-7.5-8.5h-2.8v17.1H42.7z"/>
	<path d="M75.1,34L75.1,34l-14.3,0.1V34c2.1-1.4,2.6-2.6,2.6-5.8V6.3c0-3.2-0.5-4.3-2.6-5.7V0.5h14.3v0.1C73,2,72.4,3.1,72.4,6.3
		v21.9C72.4,31.4,73,32.6,75.1,34z"/>
	<path d="M84.4,6.2c0,3.9,3.5,5.2,7.4,6.5c5.3,1.7,11.5,3.4,11.5,11.4c0,6.8-6,10.5-12.9,10.5c-3.9,0-6.7-1.4-8.7-1.4
		c-1.3,0-2.3,0.6-3.4,1.4l-0.9-11.1h0.1c3.2,6.1,8,10.2,12.8,10.2c3.9,0,6.5-2,6.5-5.7c0-4.6-4.8-5.7-9.5-7.3
		c-4.8-1.5-9.6-3.6-9.6-10.3C77.8,4,82.8,0,90.1,0c3.6,0,6.1,1.3,8,1.3c1.2,0,2.1-0.7,2.9-1.3l0.2,9.7h-0.1c-2.9-5.1-6-8.7-11-8.7
		C86.9,1,84.4,2.9,84.4,6.2z"/>
	<path d="M115.3,34.1L115.3,34.1c2.1-1.5,2.6-2.7,2.6-5.9V6.3c0-3.2-0.5-4.3-2.6-5.7V0.5H133c7.2,0,12.1,2.3,12.1,8.4
		c0,4.8-4.1,7.5-9,7.8c5.2,0.2,11,2.6,11,8.4c0,6.5-5.6,9-13.4,9H115.3z M129.6,16.3c4.2,0,6.9-2.7,6.9-7.2c0-4.7-2.7-7.2-6.9-7.2
		H127v14.5H129.6z M130.3,32.8c5.1,0,8-2.7,8-7.7c0-4.9-2.8-7.6-8-7.6H127v15.3H130.3z"/>
	<path d="M172.8,0.5c1.6,0,2.7-0.1,3.4-0.4l1.6,9.3h-0.1c-2.8-4.8-5.2-7.6-11.3-7.6H161V16h4.4c3.9,0,5.5-1,7-5.5h0.1v12.1h-0.1
		c-1.5-4.4-3.1-5.2-7-5.2H161v15.4h6.2c6.4,0,8.9-3.7,11.7-8.5h0.1l-1.5,9.8h-28.2V34c2.1-1.4,2.6-2.6,2.6-5.8V6.3
		c0-3.2-0.5-4.3-2.6-5.7V0.5H172.8z"/>
	<path d="M181.1,34c2.1-1.4,2.6-2.6,2.6-5.8V6.3c0-3.2-0.5-4.3-2.6-5.7V0.5h14.4c11.9,0,20.4,5.4,20.4,16.7c0,11.6-8.6,16.9-20,16.9
		L181.1,34L181.1,34z M195.3,32.9c7.1,0,10.9-5.6,10.9-15.7c0-9.6-3.9-15.5-11.2-15.5h-2.3v31.2H195.3z"/>
	<path d="M237.5,0.5c7.2,0,12.5,2.5,12.5,9c0,5.7-5.3,8.5-11,8.6c5.1,0.3,7.8,2.2,9.2,6.2l1.2,3.7c1.1,3.3,2.1,4.5,4.8,5.9v0.1
		h-11.9c-1.1-1.3-1.8-3-2.4-5.2l-1.6-5.9c-0.8-2.6-2-4.5-5.5-4.5H230v9.7c0,3.2,0.5,4.4,2.6,5.8v0.1h-14.3V34
		c2.1-1.4,2.6-2.6,2.6-5.8V6.3c0-3.2-0.5-4.3-2.6-5.7V0.5H237.5z M230,17.2h3.6c4.4,0,7-2.8,7-7.7c0-4.8-2.4-7.8-7-7.8H230V17.2z"/>
	<path d="M278.3,0.5c1.6,0,2.7-0.1,3.4-0.4l1.6,9.3h-0.1c-2.8-4.8-5.2-7.6-11.3-7.6h-5.5V16h4.4c3.9,0,5.5-1,7-5.5h0.1v12.1h-0.1
		c-1.5-4.4-3.1-5.2-7-5.2h-4.4v15.4h6.2c6.4,0,8.9-3.7,11.7-8.5h0.1l-1.5,9.8h-28.2V34c2.1-1.4,2.6-2.6,2.6-5.8V6.3
		c0-3.2-0.5-4.3-2.6-5.7V0.5H278.3z"/>
</g>
</svg>
