<svg version="1.1" id="Layer_1" xmlns="http://www.w3.org/2000/svg" xmlns:xlink="http://www.w3.org/1999/xlink" x="0px" y="0px"
	 width="425.2px" height="299.5px" viewBox="0 0 425.2 299.5" style="enable-background:new 0 0 425.2 299.5;" xml:space="preserve"
	>
<style type="text/css">
<![CDATA[
	.st0{clip-path:url(#SVGID_2_);fill:#FFFFFF;}
	.st1{fill:#D71920;}
	.st2{fill:#DA2128;}
	.st3{clip-path:url(#SVGID_2_);fill:#D71920;}
]]>
</style>
<rect class="st2" width="425.2" height="299.5"/>
<rect class="st2" width="425.2" height="299.5"/>
<rect class="st1" width="425.2" height="299.5"/>
<g>
	<defs>
		<rect id="SVGID_1_" width="425.2" height="299.5"/>
	</defs>
	<clipPath id="SVGID_2_">
		<use xlink:href="#SVGID_1_"  style="overflow:visible;"/>
	</clipPath>
	<path class="st0" d="M252,73c-0.2,0.2-0.9,0.1-1.3,0.1c-0.8,0.1-1.5,0.1-2.3,0.2v0.1h-0.7v0.1h-0.6v0.1h-0.6v0.1
		c-0.3,0-0.6,0.1-1,0.1v0.1c-0.3,0-0.6,0.1-0.9,0.1v0.1l-0.8,0.1v0.1c-0.2,0-0.4,0.1-0.7,0.1v0.1c-0.2,0-0.4,0.1-0.7,0.1v0.1h-0.3
		v0.1h-0.3v0.1c-0.3,0.1-0.6,0.1-0.9,0.2v0.1H241v0.1l-0.6,0.1v0.1h-0.2v0.1H240v0.1h-0.2v0.1h-0.3v0.1l-0.4,0.1V76
		c-0.2,0-0.3,0.1-0.5,0.1v0.1c-0.2,0.1-0.4,0.1-0.6,0.2v0.1h-0.2v0.1h-0.2v0.1h-0.2v0.1h-0.2v0.1h-0.2v0.1h-0.2V77h-0.2
		c0,0.1-0.1,0.1-0.1,0.2c-0.2,0.1-0.4,0.1-0.6,0.2c0,0.1-0.1,0.1-0.1,0.2c-0.1,0-0.3,0.1-0.4,0.1l-0.1,0.2c-0.1,0-0.3,0.1-0.4,0.1
		c0,0.1-0.1,0.1-0.1,0.2h-0.2c0,0.1-0.1,0.1-0.1,0.2h-0.2l-0.1,0.2h-0.2c0,0.1-0.1,0.1-0.1,0.2h-0.2l-0.1,0.2h-0.2
		c-0.1,0.1-0.1,0.2-0.2,0.3h-0.2c-0.1,0.1-0.1,0.2-0.2,0.3h-0.2c-0.1,0.1-0.1,0.2-0.2,0.3h-0.2c-0.1,0.1-0.2,0.3-0.3,0.4H232
		c-0.2,0.2-0.3,0.4-0.5,0.6h-0.2c-0.4,0.4-0.7,0.8-1.1,1.2h-0.2V82l-0.2,0.1v0.2c-0.4,0.4-0.8,0.7-1.1,1.1c0,0.1-0.1,0.2-0.1,0.3
		c-0.1,0.1-0.3,0.2-0.4,0.3v0.2c-0.1,0.1-0.3,0.2-0.4,0.3v0.2c-0.1,0.1-0.3,0.2-0.4,0.3v0.2c-0.1,0.1-0.2,0.1-0.3,0.2v0.2
		c-0.1,0-0.1,0.1-0.2,0.1c0,0.1-0.1,0.2-0.1,0.3h-0.1v0.2l-0.2,0.1v0.2l-0.2,0.1v0.2c-0.1,0-0.1,0.1-0.2,0.1v0.2
		c-0.1,0-0.1,0.1-0.2,0.1c0,0.1-0.1,0.3-0.1,0.4l-0.2,0.1c0,0.1-0.1,0.3-0.1,0.4c-0.1,0-0.1,0.1-0.2,0.1v0.2h-0.1v0.2h-0.1v0.2h-0.1
		v0.2h-0.1V89H225v0.2h-0.1v0.2h-0.1v0.2h-0.1v0.2h-0.1c-0.1,0.2-0.1,0.4-0.2,0.6h-0.1v0.3h-0.1c0,0.1-0.1,0.3-0.1,0.4H224v0.3h-0.1
		v0.2h-0.1c0,0.2-0.1,0.4-0.1,0.6h-0.1v0.2h-0.1c0,0.2-0.1,0.4-0.1,0.6h-0.1v0.3h-0.1v0.3h-0.1c0,0.2-0.1,0.4-0.1,0.7h-0.1
		c0,0.2-0.1,0.4-0.1,0.7h-0.1v0.4h-0.1v0.5h-0.1V96h-0.1v0.5h-0.1v0.5h-0.1v0.6h-0.1c-0.1,0.9-0.1,1.7-0.2,2.6
		c-0.2,0.7-0.1,2-0.1,2.9c0,2.4,0.2,4.7,0.8,6.5v0.5h0.1v0.4h0.1v0.3h0.1v0.4h0.1v0.4h0.1v0.3h0.1v0.3h0.1v0.3h0.1v0.3h0.1
		c0,0.2,0.1,0.4,0.1,0.6h0.1v0.2h0.1v0.3h0.1v0.2h0.1v0.3h0.1v0.2h0.1v0.3h0.1c0.1,0.2,0.1,0.4,0.2,0.6h0.1v0.2h0.1v0.2h0.1v0.2h0.1
		v0.2h0.1v0.2h0.1v0.2h0.1v0.2h0.1v0.2h0.1v0.2h0.1v0.2c0.1,0,0.1,0.1,0.2,0.1c0,0.1,0.1,0.3,0.1,0.4l0.2,0.1c0,0.1,0.1,0.3,0.1,0.4
		h0.1c0,0.1,0.1,0.2,0.1,0.3c0.1,0,0.1,0.1,0.2,0.1v0.2h0.1c0,0.1,0.1,0.2,0.1,0.3l0.2,0.1v0.2c0.1,0.1,0.2,0.1,0.3,0.2v0.2
		c0.1,0,0.1,0.1,0.2,0.1v0.2l0.2,0.1l0.1,0.3c0.1,0.1,0.3,0.2,0.4,0.3v0.2c0.1,0.1,0.2,0.1,0.3,0.2v0.1c0.1,0,0.1,0.1,0.2,0.1v0.2
		c0.3,0.3,0.6,0.5,0.9,0.8v0.2c0.1,0.1,0.2,0.1,0.3,0.2c0.2,0.2,0.4,0.4,0.6,0.7h0.2c0,0.1,0.1,0.1,0.1,0.2h0.1
		c0.2,0.3,0.5,0.5,0.7,0.8h0.2c0.1,0.2,0.3,0.3,0.4,0.5h0.2c0.1,0.1,0.2,0.3,0.3,0.4h0.2c0.1,0.1,0.1,0.2,0.2,0.3h0.2l0.2,0.3h0.2
		c0,0.1,0.1,0.1,0.1,0.2h0.2c0,0.1,0.1,0.1,0.1,0.2h0.2l0.1,0.2h0.2c0,0.1,0.1,0.1,0.1,0.2h0.2l0.1,0.2h0.2c0,0.1,0.1,0.1,0.1,0.2
		h0.2v0.1h0.2c0,0.1,0.1,0.1,0.1,0.2c0.1,0,0.3,0.1,0.4,0.1c0,0.1,0.1,0.1,0.1,0.2l0.6,0.2c0,0.1,0.1,0.1,0.1,0.2
		c0.2,0.1,0.4,0.1,0.6,0.2v0.1h0.2v0.1h0.2v0.1c0.2,0.1,0.4,0.1,0.6,0.2v0.1h0.3v0.1h0.2v0.1c0.1,0,0.3,0.1,0.4,0.1v0.1h0.3v0.1
		l0.4,0.1v0.1h0.3v0.1h0.2v0.1c0.2,0,0.4,0.1,0.6,0.1v0.1h0.2v0.1c1.5,0.4,3,0.8,4.4,1.3h0.5c0.5,0.1,1.2,0.2,1.6,0.4h0.7v0.1h0.8
		v0.1h0.9v0.1h1.3c0.9,0.3,2.4,0.1,3.6,0.1h1.4v-0.1h1.3v-0.1h0.9v-0.1h0.8v-0.1h0.7v-0.1h0.6v-0.1h0.6V131h0.5v-0.1h0.5v-0.1h0.4
		v-0.1h0.4v-0.1h0.5v-0.1c0.4-0.1,0.7-0.1,1.1-0.2v-0.1h0.3v-0.1h0.3V130h0.4v-0.1h0.3v-0.1h0.3v-0.1h0.3v-0.1h0.2v-0.1
		c0.2,0,0.4-0.1,0.6-0.1v-0.1h0.2v-0.1c0.2,0,0.4-0.1,0.6-0.1v-0.1l0.4-0.1v-0.1h0.3v-0.1c0.1,0,0.3-0.1,0.4-0.1v-0.1h0.2v-0.1h0.3
		v-0.1c0.2-0.1,0.4-0.1,0.6-0.2v-0.1h0.2V128c0.2-0.1,0.4-0.1,0.6-0.2c0-0.1,0.1-0.1,0.1-0.2h0.2v-0.1h0.2v-0.1h0.2v-0.1h0.2
		c0-0.1,0.1-0.1,0.1-0.2h0.2V127h0.2l0.1-0.2c0.1,0,0.3-0.1,0.4-0.1c0-0.1,0.1-0.1,0.1-0.2h0.2l0.1-0.2h0.2c0-0.1,0.1-0.1,0.1-0.2
		h0.2v-0.1l0.3-0.1c0-0.1,0.1-0.1,0.1-0.2h0.2c0.1-0.1,0.1-0.2,0.2-0.3h0.2l0.1-0.2h0.2c0-0.1,0.1-0.1,0.1-0.2h0.1
		c0-0.1,0.1-0.1,0.1-0.2h0.2c0.1-0.1,0.2-0.3,0.3-0.4h0.2c0.1-0.2,0.3-0.3,0.4-0.5h0.2c0.3-0.4,0.6-0.7,1-1.1h0.2
		c0.1-0.1,0.2-0.3,0.3-0.4l0.2-0.1v-0.2c0.3-0.3,0.6-0.6,1-0.9v-0.2c0.2-0.1,0.3-0.3,0.5-0.4v-0.2c0.1-0.1,0.3-0.2,0.4-0.3v-0.2
		l0.3-0.2v-0.2l0.3-0.2v-0.2c0.1-0.1,0.2-0.1,0.3-0.2v-0.2l0.2-0.1c0-0.1,0.1-0.2,0.1-0.3h0.1v-0.2c0.1,0,0.1-0.1,0.2-0.1
		c0-0.1,0.1-0.3,0.1-0.4c0.1,0,0.1-0.1,0.2-0.1l0.1-0.3h0.1c0.1-0.2,0.1-0.4,0.2-0.6c0.1,0,0.1-0.1,0.2-0.1v-0.2h0.1v-0.2h0.1v-0.2
		h0.1v-0.2h0.1V116h0.1v-0.2h0.1v-0.2h0.1v-0.2h0.1c0.1-0.2,0.1-0.4,0.2-0.6h0.1c0-0.2,0.1-0.3,0.1-0.5h0.1v-0.2h0.1v-0.3h0.1v-0.2
		h0.1c0-0.2,0.1-0.4,0.1-0.6h0.1v-0.2h0.1v-0.3h0.1v-0.3h0.1V112h0.1v-0.3h0.1v-0.4h0.1v-0.3h0.1v-0.4h0.1v-0.4h0.1v-0.4h0.1v-0.4
		h0.1l0.1-1h0.1c0.1-0.9,0.3-1.7,0.4-2.6v-1.2c0.2-0.8,0.2-3.9,0-4.6v-1.2h-0.1v-0.8h-0.1v-0.7h-0.1V97h-0.1v-0.6h-0.1
		c0-0.3-0.1-0.6-0.1-0.9H284v-0.4h-0.1v-0.4h-0.1v-0.4h-0.1v-0.4h-0.1v-0.3h-0.1v-0.3h-0.1l-0.3-1.3H283V92H283
		c0-0.2-0.1-0.4-0.1-0.6h-0.1c0-0.1-0.1-0.3-0.1-0.4h-0.1v-0.3h-0.1v-0.2h-0.1v-0.3h-0.1c-0.1-0.2-0.1-0.4-0.2-0.6H282v-0.2h-0.1
		v-0.2h-0.1v-0.2h-0.1V89h-0.1v-0.2h-0.1v-0.2h-0.1v-0.2h-0.1v-0.2c-0.1,0-0.1-0.1-0.2-0.1c-0.1-0.2-0.1-0.4-0.2-0.6l-0.2-0.1
		c0-0.1-0.1-0.3-0.1-0.4c-0.1,0-0.1-0.1-0.2-0.1v-0.2c-0.1,0-0.1-0.1-0.2-0.1v-0.2l-0.2-0.1v-0.2H280c0-0.1-0.1-0.2-0.1-0.3
		c-0.1,0-0.1-0.1-0.2-0.1v-0.2c-0.1,0-0.1-0.1-0.2-0.1l-0.1-0.3l-0.3-0.2v-0.2c-0.1-0.1-0.2-0.1-0.3-0.2v-0.2
		c-0.1-0.1-0.3-0.2-0.4-0.3V84c-0.2-0.2-0.4-0.3-0.6-0.5v-0.2c-0.3-0.3-0.6-0.6-1-0.9c-0.5-0.5-1-1.1-1.5-1.6h-0.2
		c-0.1-0.2-0.3-0.3-0.4-0.5h-0.2c-0.1-0.1-0.2-0.3-0.3-0.4h-0.2c-0.1-0.1-0.2-0.3-0.3-0.4h-0.2c-0.1-0.1-0.1-0.2-0.2-0.3h-0.2
		c0-0.1-0.1-0.1-0.1-0.2H273l-0.2-0.3h-0.2c0-0.1-0.1-0.1-0.1-0.2h-0.2l-0.1-0.2H272c0-0.1-0.1-0.1-0.1-0.2h-0.2
		c0-0.1-0.1-0.1-0.1-0.2c-0.1,0-0.3-0.1-0.4-0.1l-0.1-0.2c-0.1,0-0.3-0.1-0.4-0.1c0-0.1-0.1-0.1-0.1-0.2c-0.2-0.1-0.4-0.1-0.6-0.2
		c0-0.1-0.1-0.1-0.1-0.2c-1.2-0.6-2.5-1.2-3.7-1.7l-0.6-0.1v-0.1h-0.2V75c-0.2,0-0.4-0.1-0.6-0.1v-0.1h-0.3v-0.1h-0.3v-0.1H264v-0.1
		c-0.2,0-0.5-0.1-0.7-0.1v-0.1c-0.2,0-0.4-0.1-0.7-0.1v-0.1c-0.3,0-0.5-0.1-0.8-0.1V74c-0.3,0-0.6-0.1-0.9-0.1v-0.1h-0.5
		c-0.5-0.1-1.2-0.2-1.6-0.4c-0.5,0-1-0.1-1.5-0.1v-0.1h-1.1v-0.1h-1.6C254,72.9,252.8,73,252,73"/>
	<path class="st0" d="M320.4,110.7h9.4v0.1h-0.1c0,0.2-0.1,0.4-0.1,0.6h-0.1v0.2h-0.1v0.2h-0.1v0.2c-0.1,0-0.1,0.1-0.2,0.1v0.2
		c-0.1,0-0.1,0.1-0.2,0.1v0.2c-0.1,0.1-0.3,0.2-0.4,0.3v0.2h-0.1c-0.1,0.1-0.2,0.3-0.3,0.4H328c-0.1,0.2-0.3,0.3-0.4,0.5h-0.2
		c0,0.1-0.1,0.1-0.1,0.2h-0.2c0,0.1-0.1,0.1-0.1,0.2c-0.1,0-0.3,0.1-0.4,0.1v0.1h-0.2v0.1h-0.2v0.1c-0.2,0.1-0.4,0.1-0.6,0.2v0.1
		h-0.3v0.1h-0.3v0.1h-0.3v0.1h-0.3v0.1c-0.3,0-0.5,0.1-0.8,0.1v0.1h-0.5c-1.6,0.5-3.9,0.1-5.2-0.4h-0.3c-3.2-1.4-4.9-3.6-6.3-6.7
		v-0.3h-0.1v-0.3h-0.1v-0.4h-0.1V107h-0.1v-0.4H311v-0.5c-0.4-1.2-0.5-3.5-0.1-4.8v-0.7c0.2-0.9,0.4-1.7,0.7-2.6h0.1
		c0-0.2,0.1-0.3,0.1-0.5h0.1v-0.2h0.1v-0.3h0.1c0.1-0.2,0.1-0.4,0.2-0.6h0.1v-0.2h0.1c0-0.1,0.1-0.3,0.1-0.4c0.1,0,0.1-0.1,0.2-0.1
		c0-0.1,0.1-0.3,0.1-0.4l0.2-0.1v-0.2c0.1,0,0.1-0.1,0.2-0.1v-0.2c0.1-0.1,0.2-0.1,0.3-0.2v-0.2c0.1-0.1,0.3-0.2,0.4-0.3v-0.2
		c0.3-0.3,0.6-0.5,0.9-0.8c0.1-0.1,0.2-0.3,0.3-0.4h0.2c0.1-0.1,0.2-0.3,0.3-0.4h0.2c0.1-0.1,0.1-0.2,0.2-0.3h0.2l0.1-0.2
		c0.1,0,0.3-0.1,0.4-0.1c0-0.1,0.1-0.1,0.1-0.2c0.1,0,0.3-0.1,0.4-0.1v-0.1c0.2-0.1,0.4-0.1,0.6-0.2v-0.1h0.3v-0.1h0.2v-0.1h0.3
		c1-0.4,2.1-0.7,3.6-0.7h1.3v0.1h0.7v0.1h0.5v0.1h0.4v0.1h0.3v0.1h0.3V91h0.3v0.1h0.3v0.1h0.2v0.1h0.2v0.1h0.2v0.1h0.2v0.1h0.2v0.1
		h0.2l0.1,0.2h0.2c0,0.1,0.1,0.1,0.1,0.2h0.2c0.1,0.1,0.2,0.3,0.3,0.4h0.2c0.2,0.2,0.4,0.5,0.6,0.7c0.1,0.1,0.3,0.2,0.4,0.3v0.2
		c0.1,0.1,0.2,0.1,0.3,0.2V94c0.1,0.1,0.2,0.1,0.3,0.2c0.2,0.3,0,0.4,0.5,0.6c0.3-0.3,1.1-0.4,1.5-0.6v-0.1h0.3V94h0.2v-0.1h0.3
		v-0.1c0.2,0,0.4-0.1,0.6-0.1v-0.1h0.2v-0.1c0.3-0.1,0.6-0.1,0.9-0.2v-0.1h0.2v-0.1c0.3-0.1,0.6-0.1,0.9-0.2c2.3-1,5-1.8,7.3-2.8
		h0.3V90c0.2,0,0.4-0.1,0.6-0.1v-0.1h0.2v-0.1h0.3v-0.1c0.2,0,0.4-0.1,0.6-0.1v-0.1h0.2v-0.1c0.2,0,0.4-0.1,0.6-0.1v-0.1h0.2v-0.1
		c0.3-0.1,0.6-0.1,0.9-0.2v-0.1h0.2v-0.1c0.3-0.1,0.6-0.1,0.9-0.2v-0.1h0.2v-0.1c0.2,0,0.4-0.1,0.6-0.1v-0.1
		c0.4-0.1,0.8-0.3,1.3-0.4c-0.1-0.4-0.3-0.7-0.5-1v-0.2l-0.2-0.1c-0.1-0.2-0.1-0.4-0.2-0.6c-0.1,0-0.1-0.1-0.2-0.1v-0.2l-0.2-0.1
		v-0.2h-0.1c0-0.1-0.1-0.2-0.1-0.3c-0.1,0-0.1-0.1-0.2-0.1v-0.2c-0.1,0-0.1-0.1-0.2-0.1c0-0.1-0.1-0.2-0.1-0.3l-0.3-0.2V84
		c-0.1-0.1-0.3-0.2-0.4-0.3v-0.2c-0.2-0.2-0.4-0.4-0.7-0.6v-0.2c-0.1-0.1-0.3-0.2-0.4-0.3c-0.3-0.3-0.5-0.6-0.8-0.9h-0.2
		c-0.2-0.2-0.4-0.4-0.6-0.7H344c0-0.1-0.1-0.1-0.1-0.2h-0.1c-0.1-0.1-0.1-0.2-0.2-0.3h-0.2l-0.2-0.3h-0.2c-0.1-0.1-0.1-0.2-0.2-0.3
		h-0.2c-0.1-0.1-0.1-0.2-0.2-0.3h-0.2c0-0.1-0.1-0.1-0.1-0.2l-0.3-0.1v-0.1h-0.2c0-0.1-0.1-0.1-0.1-0.2h-0.2c0-0.1-0.1-0.1-0.1-0.2
		h-0.2c0-0.1-0.1-0.1-0.1-0.2c-0.1,0-0.2-0.1-0.3-0.1v-0.1c-0.1,0-0.3-0.1-0.4-0.1l-0.1-0.2c-0.1,0-0.3-0.1-0.4-0.1
		c0-0.1-0.1-0.1-0.1-0.2h-0.2v-0.1h-0.2v-0.1h-0.2v-0.1H339v-0.1c-0.1,0-0.3-0.1-0.4-0.1c0-0.1-0.1-0.1-0.1-0.2
		c-0.4-0.1-0.7-0.3-1.1-0.4v-0.1h-0.2v-0.1l-0.6-0.2v-0.1h-0.3v-0.1l-0.4-0.1V76h-0.3v-0.1h-0.2v-0.1h-0.3v-0.1h-0.2v-0.1
		c-0.2,0-0.4-0.1-0.6-0.1v-0.1h-0.2v-0.1c-0.2,0-0.4-0.1-0.6-0.1v-0.1h-0.3V75h-0.3v-0.1h-0.3v-0.1h-0.3v-0.1h-0.4v-0.1h-0.3v-0.1
		h-0.3v-0.1c-0.3,0-0.5-0.1-0.8-0.1v-0.1h-0.4v-0.1h-0.4v-0.1h-0.4V74h-0.4v-0.1h-0.5c-0.6-0.2-1.5-0.3-2.1-0.5l-2.4-0.2v-0.1h-1.5
		V73c-0.5-0.1-2.5,0-2.9,0.1h-1c-0.5,0-1.3,0.1-1.7,0.2c-0.9,0.1-1.9,0.2-2.8,0.3v0.1c-0.3,0-0.6,0.1-1,0.1v0.1H313V74h-0.4v0.1
		h-0.4v0.1h-0.4v0.1c-0.3,0-0.5,0.1-0.8,0.1c-1.2,0.4-2.4,0.8-3.7,1.3v0.1c-0.1,0-0.3,0.1-0.4,0.1v0.1h-0.3V76
		c-0.2,0.1-0.4,0.1-0.6,0.2v0.1h-0.2v0.1c-0.3,0.1-0.6,0.2-0.9,0.3c0,0.1-0.1,0.1-0.1,0.2h-0.2v0.1h-0.2V77h-0.2v0.1h-0.2v0.1H304
		l-0.1,0.2c-0.2,0.1-0.4,0.1-0.6,0.2v0.1l-0.3,0.1c0,0.1-0.1,0.1-0.1,0.2c-0.1,0-0.3,0.1-0.4,0.1l-0.1,0.2h-0.2v0.1
		c-0.1,0-0.2,0.1-0.3,0.1l-0.1,0.2h-0.2c-0.1,0.1-0.1,0.2-0.2,0.3h-0.2c0,0.1-0.1,0.1-0.1,0.2H301l-0.2,0.3h-0.2
		c-0.1,0.1-0.1,0.2-0.2,0.3h-0.2c-0.1,0.2-0.3,0.3-0.4,0.5h-0.2c-0.2,0.2-0.3,0.4-0.5,0.6H299c-0.2,0.2-0.3,0.4-0.5,0.6
		c-0.5,0.5-1.1,1-1.6,1.5v0.2c-0.2,0.2-0.4,0.3-0.6,0.5v0.2c-0.1,0.1-0.3,0.2-0.4,0.3v0.2c-0.1,0-0.1,0.1-0.2,0.1v0.1
		c-0.1,0-0.1,0.1-0.2,0.1v0.2l-0.2,0.1V85c-0.1,0.1-0.2,0.1-0.3,0.2v0.2c-0.1,0-0.1,0.1-0.2,0.1v0.2c-0.1,0-0.1,0.1-0.2,0.1V86
		l-0.2,0.1v0.2c-0.1,0-0.1,0.1-0.2,0.1v0.2c-0.1,0-0.1,0.1-0.2,0.1c0,0.1-0.1,0.3-0.1,0.4l-0.2,0.1c-0.1,0.2-0.1,0.4-0.2,0.6
		l-0.2,0.1V88h-0.1v0.2h-0.1v0.2h-0.1v0.2H293v0.2H293V89h-0.1v0.2h-0.1c-0.1,0.2-0.1,0.4-0.2,0.6h-0.1V90h-0.1
		c0,0.1-0.1,0.3-0.1,0.4h-0.1v0.3h-0.1v0.2H292v0.3h-0.1v0.2h-0.1v0.3h-0.1v0.3h-0.1v0.3h-0.1v0.3h-0.1v0.3h-0.1v0.3h-0.1v0.3h-0.1
		c-0.1,0.4-0.1,0.7-0.2,1.1h-0.1v0.4h-0.1v0.5h-0.1v0.4h-0.1v0.5h-0.1v0.6h-0.1v0.6h-0.1V98h-0.1v0.8h-0.1c0,0.9-0.1,1.7-0.1,2.6
		h-0.1c-0.1,0.5,0,2.3,0.1,2.6v1.6h0.1v1h0.1v0.8h0.1v0.7h0.1v0.5h0.1v0.6h0.1v0.5h0.1v0.4h0.1v0.4h0.1v0.4h0.1v0.4h0.1v0.3h0.1v0.4
		h0.1c0.2,0.6,0.3,1.2,0.5,1.7h0.1v0.2h0.1v0.3h0.1v0.2h0.1v0.3h0.1v0.2h0.1c0,0.2,0.1,0.3,0.1,0.5h0.1c0.1,0.2,0.1,0.4,0.2,0.6h0.1
		v0.2h0.1v0.2h0.1v0.2h0.1v0.2h0.1v0.2h0.1v0.2h0.1v0.2c0.1,0,0.1,0.1,0.2,0.1c0.1,0.2,0.1,0.4,0.2,0.6h0.1c0,0.1,0.1,0.2,0.1,0.3
		c0.1,0,0.1,0.1,0.2,0.1c0,0.1,0.1,0.3,0.1,0.4h0.1c0,0.1,0.1,0.2,0.1,0.3l0.2,0.1v0.2c0.1,0,0.1,0.1,0.2,0.1v0.2
		c0.1,0.1,0.2,0.1,0.3,0.2v0.2c0.1,0.1,0.2,0.1,0.3,0.2v0.2c0.1,0.1,0.2,0.1,0.3,0.2v0.2c0.1,0,0.1,0.1,0.2,0.1v0.1
		c0.1,0,0.1,0.1,0.2,0.1v0.2c0.2,0.1,0.3,0.3,0.5,0.4v0.2c0.3,0.3,0.6,0.5,0.9,0.8c0.5,0.6,1.1,1.2,1.6,1.7h0.2
		c0.1,0.2,0.3,0.3,0.4,0.5h0.2c0.1,0.1,0.2,0.3,0.3,0.4h0.2c0.1,0.1,0.2,0.3,0.3,0.4h0.2l0.1,0.2h0.2c0.1,0.1,0.1,0.2,0.2,0.3h0.2
		c0,0.1,0.1,0.1,0.1,0.2h0.2l0.1,0.2h0.2c0,0.1,0.1,0.1,0.1,0.2h0.2c0,0.1,0.1,0.1,0.1,0.2h0.2c0,0.1,0.1,0.1,0.1,0.2
		c0.1,0,0.3,0.1,0.4,0.1c0,0.1,0.1,0.1,0.1,0.2h0.2v0.1h0.2l0.1,0.2h0.2v0.1h0.2v0.1h0.2v0.1h0.2v0.1h0.2c0,0.1,0.1,0.1,0.1,0.2
		c0.1,0,0.3,0.1,0.4,0.1v0.1c0.1,0,0.3,0.1,0.4,0.1v0.1h0.3v0.1h0.2v0.1c0.2,0.1,0.4,0.1,0.6,0.2v0.1h0.3v0.1c0.1,0,0.3,0.1,0.4,0.1
		v0.1h0.3v0.1h0.2v0.1l0.6,0.1v0.1h0.2v0.1c1.1,0.3,2.1,0.6,3.2,1h0.4v0.1h0.4v0.1h0.4v0.1h0.5v0.1h0.5c0.5,0.1,1.2,0.2,1.6,0.4h0.7
		v0.1h0.8v0.1h1.1v0.1h1.4v0.1h1.5c1.2,0,2.4-0.1,3.6-0.1v-0.1h1c0.6-0.2,1.4-0.2,1.9-0.4h0.6V131h0.5v-0.1c0.3,0,0.6-0.1,0.9-0.1
		v-0.1h0.4v-0.1h0.4v-0.1h0.4c1.4-0.5,2.7-0.9,4-1.3v-0.1h0.2V129h0.3v-0.1c0.1,0,0.3-0.1,0.4-0.1v-0.1h0.2v-0.1h0.3v-0.1
		c0.2-0.1,0.4-0.1,0.6-0.2v-0.1h0.2v-0.1h0.2V128h0.2v-0.1h0.2v-0.1h0.2v-0.1h0.2v-0.1h0.2v-0.1h0.2v-0.1h0.2c0-0.1,0.1-0.1,0.1-0.2
		c0.2-0.1,0.4-0.1,0.6-0.2l0.1-0.2h0.2v-0.1h0.2v-0.1l0.3-0.1l0.1-0.2c0.1,0,0.3-0.1,0.4-0.1l0.1-0.2h0.2l0.1-0.2h0.2
		c0.1-0.1,0.1-0.2,0.2-0.3h0.2c0-0.1,0.1-0.1,0.1-0.2h0.2c0-0.1,0.1-0.1,0.1-0.2c0.1,0,0.2-0.1,0.3-0.1l0.2-0.3h0.2
		c0.1-0.1,0.1-0.2,0.2-0.3h0.2c0.1-0.1,0.2-0.3,0.3-0.4h0.2c0.2-0.2,0.3-0.4,0.5-0.6h0.2c0.4-0.4,0.7-0.8,1.1-1.2
		c0.4-0.4,0.9-0.8,1.3-1.3V121c0.2-0.2,0.4-0.3,0.6-0.5v-0.2l0.4-0.3v-0.2c0.1-0.1,0.2-0.1,0.3-0.2v-0.2l0.3-0.2v-0.2l0.2-0.1v-0.2
		c0.1,0,0.1-0.1,0.2-0.1v-0.2c0.1,0,0.1-0.1,0.2-0.1v-0.2l0.2-0.1v-0.2l0.2-0.1c0-0.1,0.1-0.3,0.1-0.4c0.1,0,0.1-0.1,0.2-0.1
		c0-0.1,0.1-0.3,0.1-0.4l0.2-0.1v-0.2h0.1v-0.2h0.1v-0.2h0.1v-0.2h0.1v-0.2h0.1c0.1-0.2,0.1-0.4,0.2-0.6h0.1c0-0.2,0.1-0.3,0.1-0.5
		h0.1v-0.2h0.1v-0.3h0.1v-0.2h0.1c0-0.2,0.1-0.4,0.1-0.6h0.1v-0.2h0.1c0-0.2,0.1-0.4,0.1-0.6h0.1v-0.4h0.1v-0.3h0.1v-0.4h0.1v-0.3
		h0.1v-0.4c0.2-0.7,0.4-1.7,0.6-2.4c0-0.5,0.1-0.9,0.1-1.3h0.1v-0.8h0.1v-1.1h0.1v-1.3c0.1-0.5-0.1-1.4,0.1-1.9
		c0.2-0.8,0.1-2.1,0.1-3.1c0-0.6,0.1-1.2,0.1-1.8c-0.8-0.3-2.1-0.1-3.1-0.1h-6.5h-22.3v0.1h-0.1V110.7z"/>
	<path class="st0" d="M89.5,73.9H69c-0.3,0.7-0.1,2.3-0.1,3.3v7.1v24.2h-0.1v0.9h-0.1v0.5h-0.1v0.5c-0.4,1.2-1,2.3-1.9,2.9
		c-1.1,0.7-3.9,1-5.4,0.5c-0.2,0-0.4-0.1-0.7-0.1v-0.1h-0.2v-0.1l-0.6-0.2c0-0.1-0.1-0.1-0.1-0.2h-0.2c-0.1-0.1-0.1-0.2-0.2-0.3
		c-0.2-0.2-0.4-0.4-0.7-0.6V112c-0.1,0-0.1-0.1-0.2-0.1c-0.1-0.2-0.1-0.4-0.2-0.6h-0.1V111h-0.1v-0.3H58v-0.3h-0.1V110h-0.1
		l-0.1-1.3h-0.1v-1.4c-0.2-0.7-0.1-1.8-0.1-2.7v-5.3V73.9H36.9c-0.3,0.7-0.1,2.3-0.1,3.3v7.1v24.1c0.3,0.4-0.1,1.4,0.1,1.9H37v1.1
		h0.1v0.8c0.3,1.3,0.5,2.6,0.8,3.8H38v0.3h0.1v0.3h0.1c0,0.2,0.1,0.5,0.1,0.7h0.1v0.2h0.1c0,0.2,0.1,0.4,0.1,0.6h0.1v0.2h0.1v0.3
		h0.1v0.2H39v0.3H39c0.1,0.2,0.1,0.4,0.2,0.6h0.1v0.2h0.1v0.2h0.1v0.2h0.1v0.2h0.1v0.2h0.1v0.2h0.1v0.2l0.2,0.1
		c0,0.1,0.1,0.3,0.1,0.4l0.2,0.1v0.2l0.2,0.1v0.2c0.1,0,0.1,0.1,0.2,0.1v0.2h0.1c0,0.1,0.1,0.2,0.1,0.3c0.1,0,0.1,0.1,0.2,0.1v0.2
		c0.1,0.1,0.2,0.1,0.3,0.2v0.2c0.1,0.1,0.3,0.2,0.4,0.3v0.2c0.2,0.2,0.5,0.4,0.7,0.6v0.2c0.1,0.1,0.2,0.1,0.3,0.2
		c0.2,0.3,0.4,0.5,0.7,0.8h0.2c0.2,0.2,0.4,0.4,0.6,0.7h0.2c0.1,0.1,0.2,0.3,0.3,0.4h0.2c0.1,0.1,0.1,0.2,0.2,0.3h0.2
		c0.1,0.1,0.1,0.2,0.2,0.3h0.2c0,0.1,0.1,0.1,0.1,0.2H46l0.1,0.2c0.1,0,0.2,0.1,0.3,0.1v0.1c0.1,0,0.3,0.1,0.4,0.1l0.1,0.2
		c0.1,0,0.3,0.1,0.4,0.1l0.1,0.2h0.2v0.1h0.2v0.1h0.2v0.1h0.2v0.1h0.2v0.1h0.2v0.1h0.2v0.1h0.2v0.1c0.2,0.1,0.4,0.1,0.6,0.2v0.1h0.3
		v0.1h0.2v0.1h0.3v0.1h0.2v0.1c0.2,0,0.4,0.1,0.6,0.1v0.1h0.2v0.1c0.3,0.1,0.6,0.1,0.9,0.2v0.1h0.4v0.1h0.3v0.1
		c0.2,0,0.4,0.1,0.7,0.1v0.1h0.4v0.1c0.3,0,0.6,0.1,0.9,0.1v0.1h0.5c0.5,0.1,1.2,0.2,1.6,0.4h0.7v0.1h0.8v0.1h0.9v0.1h1.3
		c0.8,0.2,2.2,0.1,3.2,0.1l3.7-0.1v-0.1h1v-0.1h0.8v-0.1h0.7v-0.1h0.6v-0.1l1.5-0.2v-0.1c0.4-0.1,0.8-0.1,1.2-0.2v-0.1
		c0.3,0,0.5-0.1,0.8-0.1v-0.1h0.3v-0.1h0.3v-0.1h0.3V130h0.3v-0.1l0.9-0.2v-0.1H76v-0.1h0.3v-0.1h0.2v-0.1h0.3v-0.1h0.2v-0.1
		c0.2,0,0.3-0.1,0.5-0.1V129c0.2-0.1,0.4-0.1,0.6-0.2v-0.1h0.2v-0.1h0.2v-0.1h0.2v-0.1h0.2v-0.1H79c0-0.1,0.1-0.1,0.1-0.2
		c0.1,0,0.3-0.1,0.4-0.1c0-0.1,0.1-0.1,0.1-0.2c0.1,0,0.3-0.1,0.4-0.1v-0.1c0.1,0,0.2-0.1,0.3-0.1l0.1-0.2h0.2v-0.1
		c0.1,0,0.2-0.1,0.3-0.1c0-0.1,0.1-0.1,0.1-0.2h0.2l0.1-0.2c0.1,0,0.2-0.1,0.3-0.1l0.2-0.3h0.2c0.1-0.2,0.3-0.3,0.4-0.5h0.2
		c0.3-0.3,0.5-0.6,0.8-0.9l1.3-1.2v-0.2c0.1-0.1,0.3-0.2,0.4-0.3v-0.2c0.1-0.1,0.2-0.1,0.3-0.2v-0.2c0.1-0.1,0.2-0.1,0.3-0.2v-0.2
		l0.2-0.1c0-0.1,0.1-0.2,0.1-0.3h0.1v-0.2c0.1,0,0.1-0.1,0.2-0.1c0-0.1,0.1-0.2,0.1-0.3h0.1c0-0.1,0.1-0.3,0.1-0.4l0.2-0.1
		c0.1-0.2,0.1-0.4,0.2-0.6c0.1,0,0.1-0.1,0.2-0.1l0.1-0.4H87c0-0.1,0.1-0.3,0.1-0.4h0.1v-0.3h0.1v-0.2h0.1c0-0.1,0.1-0.3,0.1-0.4
		h0.1c0-0.2,0.1-0.3,0.1-0.5h0.1c0-0.2,0.1-0.4,0.1-0.6H88v-0.2h0.1c0.1-0.3,0.1-0.6,0.2-1h0.1v-0.3h0.1v-0.3h0.1v-0.4h0.1v-0.4h0.1
		v-0.4h0.1v-0.5H89v-0.5h0.1v-0.5h0.1v-0.7h0.1V112h0.1v-0.9h0.1v-1.2h0.1v-7.7V73.9z"/>
	<path class="st0" d="M98.8,73.9v56.9h21.6c4.1,0,8.7,0.2,11.8-0.8h0.5v-0.1h0.4v-0.1h0.4v-0.1h0.4v-0.1h0.4l3.4-1.2v-0.1h0.2v-0.1
		h0.3v-0.1c0.2-0.1,0.4-0.1,0.6-0.2v-0.1h0.2v-0.1c0.2-0.1,0.4-0.1,0.7-0.2c0-0.1,0.1-0.1,0.1-0.2h0.2v-0.1h0.2v-0.1h0.2v-0.1h0.2
		V127h0.2c0-0.1,0.1-0.1,0.1-0.2c0.2-0.1,0.4-0.1,0.6-0.2v-0.1c0.1,0,0.2-0.1,0.3-0.1c0-0.1,0.1-0.1,0.1-0.2c0.1,0,0.3-0.1,0.4-0.1
		l0.1-0.2h0.2c0-0.1,0.1-0.1,0.1-0.2h0.2c0.1-0.1,0.1-0.2,0.2-0.3h0.2c0-0.1,0.1-0.1,0.1-0.2h0.2c0.1-0.1,0.1-0.2,0.2-0.3h0.2
		c0.1-0.1,0.2-0.3,0.3-0.4h0.2c0.1-0.1,0.2-0.3,0.3-0.4h0.2c0.2-0.3,0.4-0.5,0.7-0.8h0.2c0.1-0.1,0.2-0.3,0.3-0.4
		c0.3-0.3,0.6-0.5,0.9-0.8v-0.2c0.3-0.2,0.5-0.4,0.8-0.7v-0.2c0.1-0.1,0.3-0.2,0.4-0.3v-0.2c0.1-0.1,0.3-0.2,0.4-0.3v-0.2
		c0.1-0.1,0.2-0.1,0.3-0.2v-0.2c0.1,0,0.1-0.1,0.2-0.1v-0.2c0.1-0.1,0.2-0.1,0.3-0.2v-0.2c0.1,0,0.1-0.1,0.2-0.1
		c0-0.1,0.1-0.3,0.1-0.4h0.1c0-0.1,0.1-0.2,0.1-0.3c0.1,0,0.1-0.1,0.2-0.1v-0.2h0.1V118c0.1,0,0.1-0.1,0.2-0.1l0.1-0.4
		c0.1,0,0.1-0.1,0.2-0.1v-0.2h0.1V117h0.1v-0.2h0.1v-0.2h0.1v-0.2h0.1v-0.2h0.1c0.1-0.2,0.1-0.4,0.2-0.6h0.1c0-0.2,0.1-0.3,0.1-0.5
		h0.1V115h0.1v-0.3h0.1c0-0.1,0.1-0.3,0.1-0.4h0.1c0.1-0.3,0.1-0.6,0.2-0.9h0.1v-0.2h0.1c0-0.2,0.1-0.4,0.1-0.6h0.1v-0.4h0.1V112
		h0.1c0-0.2,0.1-0.4,0.1-0.7h0.1c0-0.3,0.1-0.5,0.1-0.8h0.1v-0.5h0.1c0.1-0.5,0.1-1,0.2-1.4h0.1l0.1-1.3h0.1c0.1-1,0.1-1.9,0.2-2.9
		c0-5.1-0.5-9.6-2-13.2V91h-0.1c0-0.2-0.1-0.3-0.1-0.5h-0.1v-0.2h-0.1V90h-0.1c-0.1-0.2-0.1-0.4-0.2-0.6h-0.1v-0.2h-0.1V89h-0.1
		v-0.2h-0.1v-0.2l-0.2-0.1v-0.2h-0.1v-0.2h-0.1v-0.2H150v-0.2h-0.1v-0.2c-0.1,0-0.1-0.1-0.2-0.1c0-0.1-0.1-0.3-0.1-0.4
		c-0.1,0-0.1-0.1-0.2-0.1v-0.2l-0.2-0.1v-0.2c-0.1,0-0.1-0.1-0.2-0.1v-0.2H149c0-0.1-0.1-0.2-0.1-0.3c-0.1,0-0.1-0.1-0.2-0.1v-0.2
		c-0.1-0.1-0.2-0.1-0.3-0.2v-0.2c-0.1,0-0.1-0.1-0.2-0.1v-0.2c-0.1-0.1-0.3-0.2-0.4-0.3v-0.2l-0.5-0.4v-0.2c-0.3-0.3-0.6-0.6-1-0.9
		c-0.1-0.1-0.1-0.3-0.2-0.4H146c0-0.1-0.1-0.1-0.1-0.2h-0.1c-0.3-0.3-0.6-0.6-0.9-1h-0.2c-0.1-0.2-0.3-0.3-0.4-0.5h-0.2
		c-0.1-0.1-0.1-0.2-0.2-0.3h-0.2l-0.2-0.3h-0.2c-0.1-0.1-0.1-0.2-0.2-0.3H143l-0.1-0.2h-0.2c-0.1-0.1-0.1-0.2-0.2-0.3h-0.2
		c0-0.1-0.1-0.1-0.1-0.2c-0.1,0-0.3-0.1-0.4-0.1v-0.1l-0.3-0.1c0-0.1-0.1-0.1-0.1-0.2h-0.2v-0.1h-0.2c0-0.1-0.1-0.1-0.1-0.2
		c-0.2-0.1-0.4-0.1-0.6-0.2c0-0.1-0.1-0.1-0.1-0.2h-0.2v-0.1h-0.2v-0.1h-0.2V78h-0.2v-0.1h-0.2v-0.1h-0.2v-0.1
		c-0.2-0.1-0.4-0.1-0.6-0.2v-0.1h-0.3v-0.1h-0.2v-0.1c-0.1,0-0.3-0.1-0.4-0.1V77h-0.3v-0.1h-0.2v-0.1c-0.2,0-0.3-0.1-0.5-0.1v-0.1
		c-0.2,0-0.4-0.1-0.6-0.1v-0.1H136v-0.1c-0.2,0-0.4-0.1-0.6-0.1v-0.1h-0.3v-0.1h-0.3V76h-0.3v-0.1h-0.3v-0.1c-0.2,0-0.4-0.1-0.7-0.1
		v-0.1c-0.4-0.1-0.7-0.1-1.1-0.2v-0.1c-0.3,0-0.6-0.1-0.9-0.1c-0.7-0.2-1.6-0.4-2.3-0.6l-1.2-0.1v-0.1h-0.7v-0.1h-0.8v-0.1h-0.9
		v-0.1h-1.1v-0.1h-1.3V74h-3c-0.6-0.2-1.6-0.1-2.4-0.1h-4.5H98.8z"/>
	<path class="st0" d="M160.7,130.8h39v-15.5h-18c-0.2-0.5-0.1-1.3-0.1-1.9v-3.7h16V94.8h-16v-5.4h17.5V74c-0.8-0.3-2.6-0.1-3.6-0.1
		h-8h-26.7c-0.1,0.4-0.1,1.2-0.1,1.7v3.5v11.8V130.8z"/>
	<path class="st3" d="M119.4,113.8v-22c0.5-0.2,1.4-0.1,2.1-0.1c0.3,0.3,1,0,1.4,0.1c0.7,0.1,1.5,0.3,2.2,0.4v0.1h0.4v0.1h0.3v0.1
		h0.3v0.1h0.3v0.1h0.3v0.1h0.2v0.1h0.3v0.1c0.2,0.1,0.4,0.1,0.6,0.2v0.1c0.1,0,0.3,0.1,0.4,0.1l0.1,0.2c0.1,0,0.3,0.1,0.4,0.1
		l0.1,0.2h0.2c0.1,0.1,0.1,0.2,0.2,0.3h0.2c0.2,0.3,0.4,0.5,0.7,0.8c0.2,0.2,0.4,0.4,0.7,0.6v0.2l0.3,0.2V96c0.1,0,0.1,0.1,0.2,0.1
		l0.1,0.3h0.1c0.1,0.2,0.1,0.4,0.2,0.6h0.1v0.2h0.1c0.1,0.2,0.1,0.4,0.2,0.6h0.1V98h0.1v0.3h0.1v0.2h0.1v0.4h0.1v0.3h0.1v0.5h0.1
		v0.5c0.4,1.2,0.5,3.8,0.1,5.1c-0.1,0.6-0.2,1.2-0.3,1.7h-0.1v0.3h-0.1v0.2h-0.1v0.3h-0.1c-0.1,0.2-0.1,0.4-0.2,0.6h-0.1v0.2h-0.1
		c0,0.1-0.1,0.3-0.1,0.4c-0.1,0-0.1,0.1-0.2,0.1c0,0.1-0.1,0.3-0.1,0.4l-0.2,0.1c0,0.1-0.1,0.2-0.1,0.3c-0.2,0.1-0.3,0.3-0.5,0.4
		v0.2c-0.2,0.1-0.3,0.3-0.5,0.4c0,0.1-0.1,0.1-0.1,0.2h-0.2c-0.1,0.2-0.3,0.3-0.4,0.5c-0.1,0-0.2,0.1-0.3,0.1c0,0.1-0.1,0.1-0.1,0.2
		h-0.2l-0.1,0.2c-0.1,0-0.3,0.1-0.4,0.1l-0.1,0.2c-0.1,0-0.3,0.1-0.4,0.1v0.1c-0.2,0.1-0.4,0.1-0.6,0.2v0.1H127v0.1h-0.2v0.1h-0.3
		v0.1h-0.3v0.1h-0.3v0.1h-0.3v0.1h-0.4v0.1h-0.4v0.1h-0.4v0.1h-0.6v0.1h-0.6v0.1C122,113.7,120.7,113.7,119.4,113.8"/>
	<path class="st3" d="M252.3,91.8c2.9,0,4.7,0.3,6.4,1.4c0.1,0,0.3,0.1,0.4,0.1c0,0.1,0.1,0.1,0.1,0.2h0.2c0,0.1,0.1,0.1,0.1,0.2
		h0.2c0.1,0.1,0.1,0.2,0.2,0.3h0.2c0.3,0.4,0.6,0.7,1,1.1c0.2,0.1,0.3,0.3,0.5,0.4v0.2l0.3,0.2V96c0.1,0.1,0.2,0.1,0.3,0.2v0.2
		c0.1,0,0.1,0.1,0.2,0.1c0.1,0.2,0.1,0.4,0.2,0.6l0.2,0.1v0.2h0.1v0.2h0.1v0.3h0.1c0,0.1,0.1,0.3,0.1,0.4h0.1v0.3h0.1v0.2h0.1V99
		h0.1v0.4h0.1v0.3h0.1c0,0.3,0.1,0.6,0.1,1h0.1v0.6h0.1v1.2c0,0.2,0.2,0.7,0.1,1h-0.1c0,0.6-0.1,1.2-0.1,1.8h-0.1v0.5h-0.1v0.4h-0.1
		v0.4h-0.1v0.3h-0.1v0.3h-0.1v0.3h-0.1v0.2H263v0.3h-0.1c-0.1,0.2-0.1,0.4-0.2,0.6h-0.1c0,0.1-0.1,0.3-0.1,0.4
		c-0.1,0-0.1,0.1-0.2,0.1c0,0.1-0.1,0.3-0.1,0.4c-0.1,0-0.1,0.1-0.2,0.1v0.2c-0.1,0.1-0.2,0.1-0.3,0.2v0.2c-0.1,0.1-0.3,0.2-0.4,0.3
		v0.2c-0.3,0.2-0.5,0.4-0.8,0.7c-0.1,0.1-0.1,0.2-0.2,0.3h-0.2c-0.1,0.1-0.2,0.3-0.3,0.4h-0.2c-0.1,0.1-0.1,0.2-0.2,0.3h-0.2
		l-0.1,0.2c-0.2,0.1-0.4,0.1-0.6,0.2l-0.1,0.2h-0.2v0.1h-0.2v0.1h-0.3v0.1l-0.4,0.1v0.1h-0.3v0.1H257v0.1h-0.3v0.1h-0.4v0.1h-0.4
		v0.1h-0.5v0.1h-0.7v0.1h-1.5c-1.4,0-2.6-0.2-3.6-0.6c-0.2,0-0.4-0.1-0.6-0.1v-0.1l-0.4-0.1v-0.1c-0.3-0.1-0.6-0.2-0.9-0.3
		c0-0.1-0.1-0.1-0.1-0.2c-0.1,0-0.3-0.1-0.4-0.1l-0.1-0.2h-0.2c-0.1-0.1-0.1-0.2-0.2-0.3h-0.2c-0.1-0.1-0.1-0.2-0.2-0.3h-0.2
		c-0.1-0.2-0.3-0.3-0.4-0.5c-0.3-0.2-0.5-0.4-0.8-0.7V110c-0.1-0.1-0.3-0.2-0.4-0.3v-0.2c-0.1,0-0.1-0.1-0.2-0.1v-0.2
		c-0.1,0-0.1-0.1-0.2-0.1V109l-0.2-0.1c0-0.1-0.1-0.3-0.1-0.4H244v-0.2h-0.1c-0.1-0.2-0.1-0.4-0.2-0.6h-0.1v-0.3h-0.1v-0.2h-0.1
		v-0.3h-0.1v-0.3h-0.1v-0.3h-0.1v-0.3H243c0-0.3-0.1-0.6-0.1-1c-0.3-1-0.4-3-0.1-4v-0.6h0.1V100h0.1v-0.4h0.1v-0.4h0.1V99h0.1v-0.3
		h0.1c0-0.2,0.1-0.3,0.1-0.5h0.1V98h0.1v-0.3h0.1c0-0.1,0.1-0.3,0.1-0.4h0.1c0-0.1,0.1-0.3,0.1-0.4l0.2-0.1c0-0.1,0.1-0.3,0.1-0.4
		h0.1c0-0.1,0.1-0.2,0.1-0.3c0.1,0,0.1-0.1,0.2-0.1v-0.2c0.1-0.1,0.3-0.2,0.4-0.3v-0.2c0.2-0.2,0.4-0.3,0.6-0.5
		c0.3-0.3,0.6-0.6,0.9-1h0.2c0.1-0.1,0.1-0.2,0.2-0.3h0.2c0-0.1,0.1-0.1,0.1-0.2h0.2l0.1-0.2h0.2c0-0.1,0.1-0.1,0.1-0.2
		c0.1,0,0.3-0.1,0.4-0.1v-0.1c0.2-0.1,0.4-0.1,0.6-0.2v-0.1c0.7-0.2,1.4-0.4,2.1-0.7C251.3,91.8,252,92,252.3,91.8"/>
	<path class="st0" d="M37.1,201.8H57v-19.7c0.8-0.3,2.9-0.1,3.9-0.1h8.8v19.8h19.9v-56.9H69.8c-0.2,0.5-0.1,1.3-0.1,1.9v3.9V164H57
		v-19.1H37.2c-0.2,0.4-0.1,1.2-0.1,1.7v3.5v11.8V201.8z"/>
	<path class="st0" d="M129.5,144.8h-20.1c-0.3,0.7-0.1,2.4-0.1,3.4v7.3v24.9c-0.2,0.2-0.2,1.3-0.3,1.6c-0.2,0.5-0.4,1-0.7,1.5
		c-0.2,0.2-0.4,0.3-0.6,0.5l-0.2,0.3h-0.2v0.1c-0.2,0.1-0.4,0.1-0.6,0.2v0.1c-0.7,0.3-2.3,0.1-2.8-0.2v-0.1
		c-0.2-0.1-0.4-0.1-0.6-0.2c-0.1-0.1-0.1-0.2-0.2-0.3h-0.2c-0.2-0.2-0.3-0.4-0.5-0.6l-0.2-0.1v-0.2c-0.1-0.1-0.2-0.1-0.3-0.2v-0.2
		l-0.2-0.1v-0.2c-0.1,0-0.1-0.1-0.2-0.1c0-0.1-0.1-0.3-0.1-0.4l-0.2-0.1v-0.2h-0.1c0-0.1-0.1-0.3-0.1-0.4h-0.1V181h-0.1v-0.2H101
		c-0.2-0.6-0.5-1.2-0.7-1.8c-0.1,0.1,0,0-0.1,0.1h-0.1c0,0.2-0.1,0.3-0.1,0.5h-0.1v0.2h-0.1v0.3h-0.1v0.2h-0.1v0.3h-0.1v0.2h-0.1
		v0.3h-0.1v0.2h-0.1v0.3h-0.1c0,0.2-0.1,0.3-0.1,0.5H99v0.2h-0.1v0.3h-0.1v0.2h-0.1v0.3c-1.3,3-2.5,6.3-3.8,9.3v0.3h-0.1v0.2h-0.1
		v0.3h-0.1v0.2h-0.1v0.3h-0.1v0.2h-0.1v0.3h-0.1v0.2h-0.1v0.3H94v0.2h-0.1v0.3h-0.1c0,0.2-0.1,0.3-0.1,0.5h-0.1
		c-0.1,0.4-0.3,0.7-0.4,1.1h0.1c0.2,0.4,0.7,0.5,1.1,0.8c0,0.1,0.1,0.1,0.1,0.2h0.2c0,0.1,0.1,0.1,0.1,0.2h0.2
		c0,0.1,0.1,0.1,0.1,0.2h0.2l0.1,0.2h0.2c0,0.1,0.1,0.1,0.1,0.2c0.1,0,0.3,0.1,0.4,0.1c0,0.1,0.1,0.1,0.1,0.2c0.1,0,0.3,0.1,0.4,0.1
		l0.1,0.2c0.2,0.1,0.4,0.1,0.6,0.2c0,0.1,0.1,0.1,0.1,0.2h0.2v0.1h0.2v0.1h0.2v0.1H98v0.1h0.2v0.1h0.2v0.1c0.2,0.1,0.4,0.1,0.6,0.2
		v0.1h0.3v0.1h0.2v0.1h0.2v0.1h0.2v0.1h0.3v0.1h0.2v0.1c0.2,0,0.3,0.1,0.5,0.1v0.1h0.3v0.1h0.2v0.1c1.2,0.4,2.4,0.7,3.6,1.1h0.5
		c0.5,0.1,1.1,0.2,1.6,0.4h0.7v0.1h1.1v0.1h1.4c1.2,0,2.5,0,3.5-0.3h0.6v-0.1h0.5v-0.1h0.5v-0.1h0.4V202h0.4v-0.1h0.4v-0.1h0.3v-0.1
		h0.3v-0.1h0.3v-0.1h0.3v-0.1h0.3v-0.1h0.2v-0.1h0.3v-0.1h0.2V201c0.2,0,0.3-0.1,0.5-0.1v-0.1c0.2-0.1,0.4-0.1,0.6-0.2v-0.1h0.2
		v-0.1c0.2-0.1,0.4-0.1,0.6-0.2c0-0.1,0.1-0.1,0.1-0.2c0.1,0,0.3-0.1,0.4-0.1c0-0.1,0.1-0.1,0.1-0.2c0.1,0,0.3-0.1,0.4-0.1
		c0-0.1,0.1-0.1,0.1-0.2h0.2l0.1-0.2h0.2c0.1-0.1,0.1-0.2,0.2-0.3h0.2c0.1-0.1,0.1-0.2,0.2-0.3h0.2c0.1-0.1,0.2-0.3,0.3-0.4h0.2
		c0.2-0.2,0.4-0.5,0.6-0.7h0.2c0.2-0.2,0.4-0.5,0.6-0.7l0.2-0.1v-0.2c0.2-0.2,0.4-0.4,0.7-0.6v-0.2c0.1-0.1,0.3-0.2,0.4-0.3v-0.2
		c0.1-0.1,0.2-0.1,0.3-0.2V195c0.1,0,0.1-0.1,0.2-0.1v-0.2c0.1,0,0.1-0.1,0.2-0.1v-0.2c0.1,0,0.1-0.1,0.2-0.1v-0.2
		c0.1,0,0.1-0.1,0.2-0.1c0-0.1,0.1-0.3,0.1-0.4c0.1,0,0.1-0.1,0.2-0.1c0.1-0.2,0.1-0.4,0.2-0.6l0.2-0.1c0-0.1,0.1-0.3,0.1-0.4h0.1
		l0.1-0.4h0.1v-0.3h0.1c0-0.1,0.1-0.3,0.1-0.4h0.1v-0.3h0.1V191h0.1v-0.3h0.1v-0.2h0.1c0.3-1.1,0.6-2.2,0.9-3.3
		c0.1-0.8,0.1-1.5,0.2-2.3c0.2-0.8,0.1-2.1,0.1-3.1v-6.3V144.8z"/>
	<path class="st0" d="M138.5,201.8h39v-15.5h-18c-0.2-0.5-0.1-1.3-0.1-1.9v-3.7h16v-14.8h-16v-5.4h17.5v-15.5
		c-0.8-0.3-2.6-0.1-3.6-0.1h-8h-26.7c-0.2,0.4-0.1,1.2-0.1,1.7v3.5v11.8V201.8z"/>
	<path class="st0" d="M192.9,144.8c-3.1,19-6.2,38-9.2,56.9h20c0-0.4,0.1-0.9,0.1-1.3h0.1v-1h0.1v-1h0.1v-1h0.1v-1h0.1v-1h0.1v-1.1
		h0.1v-1h0.1v-1h0.1v-1h0.1v-1h0.1l0.1-1.9h0.1v-1h0.1v-1h0.1v-1h0.1v-1h0.1v-1h0.1c0.4-4.5,0.8-8.9,1.1-13.4h0.7
		c0,0.7,0.1,1.2,0.2,1.7v0.7h0.1v0.6h0.1v0.6h0.1v0.5h0.1v0.4h0.1v0.5h0.1c0,0.3,0.1,0.6,0.1,0.9h0.1v0.4h0.1v0.4h0.1v0.4
		c0.4,1.2,0.8,2.5,1.2,3.7v0.4h0.1v0.3h0.1v0.3h0.1v0.3h0.1c0.1,0.4,0.2,0.8,0.3,1.3h0.1v0.4c1.1,3,1.9,6.3,3,9.3
		c0.1,0.5,0.3,1.1,0.4,1.6h0.1v0.3h0.1v0.3h0.1v0.3h0.1c0.1,0.4,0.2,0.8,0.3,1.2h0.1c0.1,0.4,0.2,0.8,0.3,1.3h0.1
		c0.1,0.3,0.1,0.6,0.2,1h0.1v0.4h0.1v0.3h0.1v0.3h0.1v0.3h0.1v0.4h0.1c0,0.2,0.1,0.4,0.1,0.6h0.1c0.2,0.1,0.6,0.1,0.9,0.1h2.3h8.9
		c0-0.4,0.2-0.6,0.3-0.9c0-0.2,0.1-0.4,0.1-0.6h0.1V200h0.1v-0.3h0.1v-0.3h0.1v-0.3h0.1c0-0.2,0.1-0.5,0.1-0.7
		c0.6-1.5,1-3.2,1.6-4.7c0-0.2,0.1-0.4,0.1-0.7h0.1c0-0.2,0.1-0.4,0.1-0.6h0.1v-0.3h0.1V192h0.1v-0.3h0.1v-0.3h0.1v-0.3h0.1
		c0-0.2,0.1-0.4,0.1-0.6h0.1v-0.4h0.1v-0.3h0.1v-0.3h0.1v-0.3h0.1V189c0.8-2,1.3-4.3,2.1-6.3c0.1-0.4,0.2-0.8,0.3-1.2h0.1
		c0-0.2,0.1-0.4,0.1-0.6h0.1v-0.3h0.1v-0.3h0.1V180h0.1v-0.3h0.1v-0.3h0.1c0-0.2,0.1-0.4,0.1-0.6h0.1v-0.4h0.1v-0.3h0.1v-0.3h0.1
		v-0.3h0.1v-0.3h0.1v-0.3h0.1v-0.3h0.1c0-0.2,0.1-0.4,0.1-0.6h0.1v-0.4h0.1v-0.3h0.1v-0.3h0.1v-0.4h0.1l0.1-0.8h0.1v-0.4h0.1v-0.4
		h0.1v-0.5h0.1v-0.5h0.1v-0.5c0.1-0.4,0.2-0.8,0.3-1.3h0.4c0.9,10.4,1.9,20.8,2.8,31.2h20c-3.1-19-6.2-38-9.3-56.9h-21.1v0.1h-0.1
		c-0.1,0.4-0.2,0.9-0.3,1.3H230v0.4h-0.1v0.3h-0.1c0,0.2-0.1,0.5-0.1,0.7h-0.1c-0.1,0.3-0.1,0.6-0.2,1h-0.1v0.4h-0.1v0.3h-0.1v0.4
		c-0.6,1.6-1,3.4-1.5,5v0.4h-0.1v0.3h-0.1v0.4h-0.1v0.3h-0.1c0,0.2-0.1,0.4-0.1,0.7H227c0,0.2-0.1,0.4-0.1,0.7h-0.1l-0.1,0.7h-0.1
		c-0.1,0.3-0.1,0.6-0.2,1h-0.1v0.4h-0.1v0.3h-0.1v0.4c-0.9,2.5-1.4,5.2-2.3,7.7c-0.1,0.4-0.1,0.8-0.2,1.3h-0.1
		c-0.3,1.9-0.6,3.8-1,5.8h-0.5v-0.1H222c0-0.5-0.2-0.7-0.3-1.1v-0.4h-0.1v-0.4h-0.1v-0.4h-0.1v-0.4h-0.1v-0.3h-0.1v-0.4h-0.1V171
		H221v-0.4h-0.1v-0.4c-0.4-1.2-0.7-2.7-1.2-3.9c-0.1-0.6-0.3-1.3-0.4-1.9c-0.7-1.8-1-4-1.6-5.8c-0.1-0.6-0.3-1.3-0.4-1.9
		c-0.4-1.2-0.7-2.7-1.2-3.9v-0.4h-0.1V152H216v-0.4h-0.1v-0.4h-0.1v-0.3h-0.1v-0.4h-0.1v-0.4h-0.1v-0.4h-0.1v-0.4h-0.1
		c0-0.2-0.1-0.4-0.1-0.7h-0.1v-0.4H215c-0.1-0.4-0.1-0.8-0.2-1.2h-0.1c-0.1-0.4-0.1-0.7-0.2-1.1c-0.1-0.4-0.3-0.8-0.4-1.3H192.9z"/>
	<path class="st0" d="M274.7,144.8c-3.1,19-6.2,38-9.2,56.9h20c0-0.4,0.1-0.8,0.1-1.2h0.1v-1h0.1v-1h0.1v-1h0.1v-1h0.1v-1h0.1
		c0.2-2.6,0.4-5.2,0.7-7.8h0.1v-1h0.1v-1h0.1v-1h0.1v-1h0.1v-1h0.1v-1h0.1v-1h0.1v-1h0.1v-1h0.1v-1h0.1v-1h0.1v-1.1h0.1v-1.2h0.1
		l0.1-1.7v-1h0.1V171h0.1v-0.4h0.7c0,0.6,0.1,1.2,0.2,1.6v0.7h0.1v0.6h0.1v0.6h0.1v0.5h0.1v0.5h0.1v0.4h0.1v0.5h0.1v0.4h0.1v0.4h0.1
		v0.4h0.1v0.4h0.1v0.4h0.1v0.3h0.1v0.4h0.1v0.3h0.1v0.3h0.1v0.3h0.1c0.1,0.4,0.2,0.8,0.3,1.3h0.1v0.4h0.1v0.3h0.1v0.3h0.1v0.3h0.1
		c0.1,0.4,0.2,0.8,0.3,1.3h0.1c0.1,0.3,0.1,0.6,0.2,1h0.1v0.4c1.1,3.1,2,6.5,3.1,9.6c0.1,0.5,0.3,1.1,0.4,1.6h0.1
		c0.1,0.3,0.1,0.6,0.2,1h0.1c0.1,0.4,0.2,0.8,0.3,1.3h0.1v0.3h0.1v0.3h0.1v0.3h0.1c0.1,0.3,0.1,0.6,0.2,1h0.1c0,0.2,0.1,0.4,0.1,0.7
		h0.1v0.3h0.1v0.3h0.1v0.3h0.1v0.4h0.1c0.2,0.1,0.6,0.1,0.9,0.1h2.3h8.9c0-0.3,0.2-0.5,0.3-0.8v-0.4h0.1v-0.3h0.1V200h0.1v-0.3h0.1
		v-0.3h0.1v-0.3h0.1v-0.3h0.1c0-0.2,0.1-0.4,0.1-0.6h0.1c0.1-0.3,0.1-0.6,0.2-1c0.5-1.3,0.9-2.8,1.4-4.1c0.1-0.3,0.1-0.6,0.2-0.9
		h0.1c0.1-0.4,0.2-0.8,0.3-1.3c0.5-1.2,0.9-2.6,1.4-3.8c0.1-0.3,0.1-0.6,0.2-0.9h0.1V186h0.1v-0.3h0.1v-0.3h0.1v-0.3h0.1v-0.3h0.1
		v-0.3h0.1v-0.3h0.1c0-0.2,0.1-0.4,0.1-0.6h0.1v-0.4h0.1c0-0.2,0.1-0.4,0.1-0.6h0.1v-0.3h0.1v-0.3h0.1v-0.3h0.1v-0.3h0.1v-0.3h0.1
		c0-0.2,0.1-0.4,0.1-0.6h0.1c0.1-0.3,0.1-0.6,0.2-1c0.6-1.5,1.1-3.3,1.6-4.8l0.3-1.6h0.1l0.5-2.7h0.4c0.9,10.4,1.9,20.8,2.8,31.2h20
		c-3.1-19-6.2-38-9.3-56.9h-21.1c0,0.2-0.1,0.3-0.1,0.5H312c0,0.2-0.1,0.5-0.1,0.7h-0.1v0.4h-0.1v0.3h-0.1l-0.2,1h-0.1
		c0,0.2-0.1,0.4-0.1,0.7h-0.1v0.4H311v0.3h-0.1v0.4c-0.5,1.4-0.9,3-1.3,4.3v0.4h-0.1v0.3h-0.1c0,0.2-0.1,0.5-0.1,0.7h-0.1
		c0,0.2-0.1,0.4-0.1,0.7H309c0,0.2-0.1,0.4-0.1,0.7h-0.1v0.4c-1.2,3.2-1.8,6.8-3,10v0.4h-0.1v0.3h-0.1v0.4h-0.1v0.4h-0.1v0.4h-0.1
		c0,0.3-0.1,0.6-0.1,0.9h-0.1v0.5h-0.1v0.6H305v0.5h-0.1v0.6h-0.1v0.6h-0.1v0.6h-0.1v0.7h-0.1v0.6h-0.1v0.7h-0.1v0.1h-0.5v-0.1h-0.1
		c-0.1-0.6-0.3-1.2-0.4-1.8h-0.1c0-0.3-0.1-0.5-0.1-0.8h-0.1c0-0.3-0.1-0.5-0.1-0.8c-0.5-1.3-0.8-3-1.2-4.3c0-0.3-0.1-0.5-0.1-0.8
		c-0.2-0.6-0.4-1.3-0.6-1.8c0-0.3-0.1-0.5-0.1-0.8c-0.3-0.9-0.6-2-0.9-2.9c0-0.3-0.1-0.5-0.1-0.8c-0.8-2.2-1.2-4.7-1.9-6.9
		c-0.1-0.4-0.1-0.8-0.2-1.2c-0.5-1.5-0.8-3.2-1.4-4.7v-0.4h-0.1v-0.4h-0.1v-0.3h-0.1v-0.4h-0.1c-0.1-0.3,0-0.6-0.2-0.8
		c-0.2-0.2-1-0.1-1.4-0.1h-4H274.7z"/>
	<path class="st0" d="M349.1,201.8h39v-15.5h-18c-0.2-0.5-0.1-1.3-0.1-1.9v-3.7h16v-14.8h-16v-5.4h17.5v-15.5
		c-0.8-0.3-2.6-0.1-3.6-0.1h-8h-26.7c-0.2,0.4-0.1,1.2-0.1,1.7v3.5v11.8V201.8z"/>
	<path class="st0" d="M58.3,222.1c5.5,0,8.4,1.8,8.4,9.8c0,8.3-3.3,10-8.5,10h-6.5c-0.5,0-0.6-0.1-0.6-0.6v-1.6
		c0-0.5,0.1-0.6,0.6-0.6h1.5v-14.2h-1.5c-0.5,0-0.6-0.1-0.6-0.6v-1.6c0-0.5,0.1-0.6,0.6-0.6H58.3z M58.1,238.7
		c3.3,0,4.5-1.4,4.5-6.9c0-5.2-1.2-6.6-4.5-6.6h-1.1v13.5H58.1z"/>
	<path class="st0" d="M72.1,235.7c0,1.6,0.5,3.6,3.2,3.6c2.1,0,3.3-1,3.7-1c0.1,0,0.3,0.1,0.3,0.2l0.7,1.7c0,0.1,0.1,0.2,0.1,0.3
		c0,0.7-2.9,1.7-5.2,1.7c-3.8,0-6.4-2.2-6.4-7.5c0-4.6,2.4-7.7,6.3-7.7c4.9,0,5.8,4.4,5.8,7.9c0,0.5-0.1,0.7-0.7,0.7H72.1z
		 M76.6,233c0-1.2-0.1-3.2-2.1-3.2c-2.2,0-2.4,2.4-2.4,3.2H76.6z"/>
	<path class="st0" d="M87.4,237.2c0,0.9,0,1.8,1,1.8c1.1,0,1.9-0.5,2.3-0.5c0.1,0,0.2,0.1,0.2,0.2l0.6,2.4c0,0.1,0.1,0.2,0.1,0.3
		c0,0.5-2.1,1.1-4.1,1.1c-3.7,0-3.7-2.9-3.7-5.6v-6.5h-2c-0.4,0-0.4-0.1-0.4-0.4V228c0-0.3,0.1-0.4,0.4-0.4h2v-3.6
		c0-0.4,0.1-0.5,0.5-0.5l2.5-0.3c0.1,0,0.2,0,0.4,0c0.3,0,0.3,0.1,0.3,0.5v4h3.3c0.3,0,0.5,0.1,0.5,0.3c0,0.1,0,0.2-0.1,0.3
		l-0.4,1.7c-0.1,0.4-0.3,0.4-0.5,0.4h-2.8V237.2z"/>
	<path class="st0" d="M114.4,241.4c0,0.3-0.1,0.4-0.4,0.4h-4.7c-0.3,0-0.4-0.1-0.4-0.4v-8.9c0-1.1-0.1-2.4-1.6-2.4
		c-1.2,0-2.1,0.9-2.5,1.2v7.8h1.5c0.3,0,0.4,0.1,0.4,0.4v1.9c0,0.3-0.1,0.4-0.4,0.4h-6.6c-0.4,0-0.4-0.1-0.4-0.4v-1.9
		c0-0.3,0.1-0.4,0.4-0.4h1.5v-15.3h-1.4c-0.3,0-0.4-0.1-0.4-0.4v-1.9c0-0.3,0.1-0.4,0.4-0.4h4.7c0.3,0,0.4,0.1,0.4,0.4v7.2
		c0.8-0.6,1.9-1.6,4-1.6c3.1,0,3.7,2,3.7,4.6v7.5h1.5c0.3,0,0.4,0.1,0.4,0.4V241.4z"/>
	<path class="st0" d="M126.9,236.7c0,1.4,0.1,1.8,0.3,2.4h1.2c0.3,0,0.4,0.1,0.4,0.4v1.9c0,0.3-0.1,0.4-0.4,0.4h-3.6
		c-0.7,0-0.7-0.7-0.9-1.2c-0.6,0.6-1.6,1.7-3.7,1.7c-2.7,0-4.3-1.7-4.3-4.4c0-4.9,5.2-4.9,7.5-4.9v-0.9c0-1.3-0.2-2.1-2-2.1
		c-1.6,0-3.2,0.9-3.6,0.9c-0.1,0-0.3-0.2-0.3-0.3l-0.6-1.8c0-0.1-0.1-0.2-0.1-0.3c0-0.7,2.9-1.4,5.1-1.4c3.6,0,5,1.6,5,4.6V236.7z
		 M123.5,235.3c-0.7,0-4.1-0.2-4.1,2.3c0,1.1,0.8,2,1.9,2c1.1,0,1.8-0.7,2.2-1.1V235.3z"/>
	<path class="st0" d="M145.3,241.4c0,0.3-0.1,0.4-0.4,0.4h-4.7c-0.3,0-0.4-0.1-0.4-0.4v-8.9c0-1.1-0.1-2.4-1.6-2.4
		c-1.2,0-2.1,0.8-2.5,1.2v7.8h1.5c0.4,0,0.4,0.1,0.4,0.4v1.9c0,0.3-0.1,0.4-0.4,0.4h-6.6c-0.3,0-0.4-0.1-0.4-0.4v-1.9
		c0-0.3,0.1-0.4,0.4-0.4h1.5v-6.4c0-1.4-0.1-1.8-0.3-2.4h-1.4c-0.3,0-0.4-0.1-0.4-0.4V228c0-0.3,0.1-0.4,0.4-0.4h4
		c0.7,0,0.7,0.9,0.9,1.5c0.9-0.7,2.1-2,4.4-2c3.1,0,3.7,2,3.7,4.6v7.5h1.5c0.3,0,0.4,0.1,0.4,0.4V241.4z"/>
	<path class="st0" d="M160.6,241.4c0,0.3-0.1,0.4-0.4,0.4h-3.9c-0.6,0-0.5-0.2-0.8-1.1c-0.5,0.4-1.9,1.6-4.1,1.6
		c-3.3,0-4.9-2.6-4.9-7c0-5.4,2-8.2,5.5-8.2c1.7,0,2.4,0.5,2.9,0.9v-4.1h-1.5c-0.4,0-0.4-0.1-0.4-0.4v-1.9c0-0.3,0.1-0.4,0.4-0.4
		h4.7c0.3,0,0.4,0.1,0.4,0.4v15.1c0,1.4,0.1,1.9,0.3,2.4h1.3c0.3,0,0.4,0.1,0.4,0.4V241.4z M155,230.5c-0.3-0.1-0.9-0.6-2.2-0.6
		c-2.2,0-2.6,1.6-2.6,4.8c0,3.3,0.6,4.6,2.4,4.6c1.4,0,2-0.6,2.4-1V230.5z"/>
	<path class="st0" d="M162.5,223.8h-1.4c-0.3,0-0.4-0.1-0.4-0.4v-1.9c0-0.3,0.1-0.4,0.4-0.4h4.7c0.3,0,0.4,0.1,0.4,0.4v15.7
		c0,0.9,0,1.7,0.8,1.7c0.6,0,0.9-0.3,1.1-0.3c0.1,0,0.2,0.1,0.2,0.2l0.6,2.4c0,0.1,0.1,0.1,0.1,0.2c0,0.4-1.5,0.8-2.9,0.8
		c-3.5,0-3.5-2.9-3.5-5.6V223.8z"/>
	<path class="st0" d="M173.2,235.7c0,1.6,0.5,3.6,3.2,3.6c2.1,0,3.3-1,3.7-1c0.1,0,0.3,0.1,0.3,0.2l0.7,1.7c0,0.1,0.1,0.2,0.1,0.3
		c0,0.7-2.9,1.7-5.1,1.7c-3.8,0-6.5-2.2-6.5-7.5c0-4.6,2.4-7.7,6.3-7.7c4.9,0,5.8,4.4,5.8,7.9c0,0.5-0.1,0.7-0.7,0.7H173.2z
		 M177.7,233c0-1.2-0.1-3.2-2.1-3.2c-2.2,0-2.4,2.4-2.4,3.2H177.7z"/>
	<path class="st0" d="M190.6,241.4c0,0.3-0.1,0.4-0.4,0.4h-6.7c-0.3,0-0.4-0.1-0.4-0.4v-1.9c0-0.3,0.1-0.4,0.4-0.4h1.5v-6.4
		c0-1.4-0.1-1.8-0.3-2.4h-1.4c-0.3,0-0.4-0.1-0.4-0.4V228c0-0.3,0.1-0.4,0.4-0.4h3.7c0.7,0,0.9,1.1,1.1,1.8c0.5-0.7,1.6-2.3,3.6-2.3
		c0.8,0,1.7,0.3,1.7,0.7c0,0.1,0,0.2-0.1,0.3l-0.9,2.4c0,0.1-0.1,0.3-0.2,0.3c-0.2,0-0.7-0.3-1.4-0.3c-0.9,0-1.8,1-2.2,1.4v7.3h1.6
		c0.3,0,0.4,0.1,0.4,0.4V241.4z"/>
	<path class="st0" d="M207.4,242.3c-3.9,0-6.2-3-6.2-7.6c0-4.6,2.4-7.6,6.2-7.6c3.9,0,6.3,3,6.3,7.6
		C213.7,239.3,211.3,242.3,207.4,242.3 M209.8,234.7c0-2.7-0.4-4.7-2.4-4.7s-2.4,2-2.4,4.7c0,2.7,0.4,4.7,2.4,4.7
		C209.5,239.4,209.8,237.4,209.8,234.7"/>
	<path class="st0" d="M237.2,241.4c0,0.3-0.1,0.4-0.4,0.4h-4.7c-0.3,0-0.4-0.1-0.4-0.4v-8.9c0-1.1-0.1-2.4-1.2-2.4
		c-1.2,0-2.1,0.8-2.5,1.2v7.8h1.5c0.3,0,0.4,0.1,0.4,0.4v1.9c0,0.3-0.1,0.4-0.4,0.4h-4.7c-0.4,0-0.4-0.1-0.4-0.4v-8.9
		c0-1.1-0.1-2.4-1.2-2.4c-1.2,0-2.1,0.8-2.5,1.2v7.8h1.5c0.3,0,0.4,0.1,0.4,0.4v1.9c0,0.3-0.1,0.4-0.4,0.4h-6.6
		c-0.3,0-0.4-0.1-0.4-0.4v-1.9c0-0.3,0.1-0.4,0.4-0.4h1.5v-6.4c0-1.4-0.1-1.8-0.3-2.4h-1.4c-0.3,0-0.4-0.1-0.4-0.4V228
		c0-0.3,0.1-0.4,0.4-0.4h4c0.7,0,0.8,0.9,0.9,1.5c0.9-0.7,2.1-2,4.4-2c1.2,0,2.6,0.8,2.9,2c0.9-0.7,2.1-2,4.4-2c2.7,0,3.3,2,3.3,4.6
		v7.5h1.5c0.3,0,0.4,0.1,0.4,0.4V241.4z"/>
	<path class="st0" d="M259.7,241.4c0,0.3-0.1,0.4-0.4,0.4h-3.9c-0.6,0-0.5-0.2-0.8-1.1c-0.6,0.4-1.9,1.6-4.1,1.6
		c-3.3,0-4.9-2.6-4.9-7c0-5.4,2-8.2,5.5-8.2c1.7,0,2.4,0.5,2.9,0.9v-4.1h-1.5c-0.3,0-0.4-0.1-0.4-0.4v-1.9c0-0.3,0.1-0.4,0.4-0.4
		h4.7c0.3,0,0.4,0.1,0.4,0.4v15.1c0,1.4,0.1,1.9,0.3,2.4h1.3c0.4,0,0.4,0.1,0.4,0.4V241.4z M254.1,230.5c-0.3-0.1-0.9-0.6-2.2-0.6
		c-2.2,0-2.6,1.6-2.6,4.8c0,3.3,0.5,4.6,2.4,4.6c1.4,0,2-0.6,2.4-1V230.5z"/>
	<path class="st0" d="M269.2,241.4c0,0.3-0.1,0.4-0.4,0.4h-7.3c-0.3,0-0.4-0.1-0.4-0.4v-1.9c0-0.3,0.1-0.4,0.4-0.4h1.8v-8.9h-1.9
		c-0.3,0-0.4-0.1-0.4-0.4V228c0-0.3,0.1-0.4,0.4-0.4h5.1c0.3,0,0.4,0.1,0.4,0.4v11.1h1.8c0.3,0,0.4,0.1,0.4,0.4V241.4z M265.1,225.7
		c-1.3,0-2.4-1.1-2.4-2.4c0-1.3,1.1-2.4,2.4-2.4c1.3,0,2.4,1,2.4,2.4C267.5,224.6,266.4,225.7,265.1,225.7"/>
	<path class="st0" d="M282.1,236.2c0,1.9,0.1,4.9,0.1,6.5c0,3.1-1.6,5.2-5.6,5.2c-2.2,0-6-0.9-6-1.5c0-0.2,0-0.3,0.1-0.6l0.5-1.8
		c0.1-0.2,0.2-0.3,0.3-0.3c0.3,0,2.1,1.1,4.7,1.1c2,0,2.4-0.8,2.4-2.4c0-1-0.1-1.7-0.1-1.9c-0.4,0.3-1.5,1.1-3.5,1.1
		c-3.2,0-4.9-2.7-4.9-7c0-4.6,2-7.5,5.4-7.5c2,0,2.9,0.9,3.4,1.4c0.1-0.3,0.6-1.4,1-1.4c0.1,0,0.2,0,0.3,0.1l2.2,0.8
		c0.1,0.1,0.3,0.1,0.3,0.3c0,0.4-0.8,1.4-0.8,3.7V236.2z M278.6,231c-0.4-0.3-1-0.9-2.3-0.9c-1.7,0-2.5,1.6-2.5,4.4
		c0,2.6,0.6,4.3,2.3,4.3c1.5,0,2.2-0.7,2.4-1V231z"/>
	<path class="st0" d="M298,242.3c-3.9,0-6.2-3-6.2-7.6c0-4.6,2.4-7.6,6.2-7.6c3.9,0,6.3,3,6.3,7.6
		C304.2,239.3,301.9,242.3,298,242.3 M300.3,234.7c0-2.7-0.4-4.7-2.4-4.7c-2,0-2.4,2-2.4,4.7c0,2.7,0.3,4.7,2.4,4.7
		C300,239.4,300.3,237.4,300.3,234.7"/>
	<path class="st0" d="M317.8,236.2c0,1.9,0.1,4.9,0.1,6.5c0,3.1-1.6,5.2-5.6,5.2c-2.2,0-6-0.9-6-1.5c0-0.2,0-0.3,0.1-0.6l0.5-1.8
		c0.1-0.2,0.2-0.3,0.3-0.3c0.3,0,2.1,1.1,4.7,1.1c2,0,2.4-0.8,2.4-2.4c0-1-0.1-1.7-0.1-1.9c-0.4,0.3-1.5,1.1-3.5,1.1
		c-3.2,0-4.9-2.7-4.9-7c0-4.6,2-7.5,5.4-7.5c2,0,2.9,0.9,3.4,1.4c0.1-0.3,0.6-1.4,1-1.4c0.1,0,0.2,0,0.3,0.1l2.2,0.8
		c0.1,0.1,0.3,0.1,0.3,0.3c0,0.4-0.8,1.4-0.8,3.7V236.2z M314.4,231c-0.4-0.3-1-0.9-2.3-0.9c-1.7,0-2.5,1.6-2.5,4.4
		c0,2.6,0.6,4.3,2.3,4.3c1.5,0,2.2-0.7,2.4-1V231z"/>
	<path class="st0" d="M349.6,241.4c0,0.3-0.1,0.4-0.4,0.4h-4.7c-0.3,0-0.4-0.1-0.4-0.4v-8.9c0-1.1-0.1-2.4-1.2-2.4
		c-1.2,0-2.1,0.8-2.5,1.2v7.8h1.5c0.3,0,0.4,0.1,0.4,0.4v1.9c0,0.3-0.1,0.4-0.4,0.4h-4.7c-0.3,0-0.4-0.1-0.4-0.4v-8.9
		c0-1.1-0.1-2.4-1.2-2.4c-1.2,0-2.1,0.8-2.5,1.2v7.8h1.5c0.3,0,0.4,0.1,0.4,0.4v1.9c0,0.3-0.1,0.4-0.4,0.4h-6.6
		c-0.3,0-0.4-0.1-0.4-0.4v-1.9c0-0.3,0.1-0.4,0.4-0.4h1.5v-6.4c0-1.4-0.1-1.8-0.3-2.4h-1.4c-0.3,0-0.4-0.1-0.4-0.4V228
		c0-0.3,0.1-0.4,0.4-0.4h4c0.7,0,0.8,0.9,0.9,1.5c0.9-0.7,2.1-2,4.4-2c1.2,0,2.6,0.8,2.9,2c0.9-0.7,2.1-2,4.4-2c2.7,0,3.3,2,3.3,4.6
		v7.5h1.5c0.3,0,0.4,0.1,0.4,0.4V241.4z"/>
	<path class="st0" d="M359,241.4c0,0.3-0.1,0.4-0.4,0.4h-7.3c-0.3,0-0.4-0.1-0.4-0.4v-1.9c0-0.3,0.1-0.4,0.4-0.4h1.8v-8.9h-1.9
		c-0.3,0-0.4-0.1-0.4-0.4V228c0-0.3,0.1-0.4,0.4-0.4h5.1c0.3,0,0.4,0.1,0.4,0.4v11.1h1.8c0.3,0,0.4,0.1,0.4,0.4V241.4z M354.9,225.7
		c-1.3,0-2.4-1.1-2.4-2.4c0-1.3,1.1-2.4,2.4-2.4c1.3,0,2.4,1,2.4,2.4C357.3,224.6,356.2,225.7,354.9,225.7"/>
	<path class="st0" d="M371.9,236.2c0,1.9,0.1,4.9,0.1,6.5c0,3.1-1.6,5.2-5.6,5.2c-2.2,0-6-0.9-6-1.5c0-0.2,0-0.3,0.1-0.6l0.6-1.8
		c0.1-0.2,0.2-0.3,0.3-0.3c0.4,0,2.1,1.1,4.7,1.1c2,0,2.4-0.8,2.4-2.4c0-1-0.1-1.7-0.1-1.9c-0.4,0.3-1.5,1.1-3.5,1.1
		c-3.2,0-4.9-2.7-4.9-7c0-4.6,2-7.5,5.4-7.5c2,0,2.9,0.9,3.4,1.4c0.1-0.3,0.6-1.4,1-1.4c0.1,0,0.2,0,0.3,0.1l2.2,0.8
		c0.1,0.1,0.3,0.1,0.3,0.3c0,0.4-0.8,1.4-0.8,3.7V236.2z M368.4,231c-0.4-0.3-1-0.9-2.3-0.9c-1.7,0-2.5,1.6-2.5,4.4
		c0,2.6,0.6,4.3,2.3,4.3c1.5,0,2.2-0.7,2.4-1V231z"/>
</g>
</svg>
