<?xml version="1.0" encoding="utf-8"?>
<!-- Generator: Adobe Illustrator 16.0.0, SVG Export Plug-In . SVG Version: 6.00 Build 0)  -->
<!DOCTYPE svg PUBLIC "-//W3C//DTD SVG 1.1//EN" "http://www.w3.org/Graphics/SVG/1.1/DTD/svg11.dtd">
<svg version="1.1" xmlns="http://www.w3.org/2000/svg" xmlns:xlink="http://www.w3.org/1999/xlink" x="0px" y="0px" width="576px"
	 height="180px" viewBox="0 0 576 180" style="enable-background:new 0 0 576 180;" xml:space="preserve">
<style type="text/css">
<![CDATA[
	.st0{fill:#EF5BA1;}
]]>
</style>
<g id="Layer_1">
</g>
<g id="Layer_2">
	<g>
		<path class="st0" d="M136.4,13c2,6.2-6,15.5-9.6,22.9c-7.4,15.3-21.7,51.2-29.8,63.9c-13.8,20.7-21,40.8-35.1,62.1
			c-0.9,9.5-5.4,6.5-13.6,8.6c-7.7,2-12.9,6.4-20.1,1.1c-5.3-3.8-2-8.5-2.2-11.2c-3-35.9-8.9-117-12.6-137.7
			C13,20,11.6,18.4,12,17.9c0.1-0.7,7.8-10.1,15.5-10.1c1.1,0,10.5,4.6,11.5,8.6c7.1,29.9,4.9,83.6,13.5,112.9
			c0.3,0.6,0.9,0.9,1.4,1.4c14.9-25.3,36.9-65.5,46.5-94.2c1.9-5.7,1-3.9,3.7-11.6C107.6,15.1,125.8-7.9,136.4,13"/>
		<path class="st0" d="M148.1,56.7c1.4-5.4-8.4-3-7.8-3.2c-3.4,0.8-20.2,7.4-20.4,13.8c-0.8,25.6-2.2,55.4,3.7,80.7
			c0.6,2.7,2.9,5.2,2.9,5.2c6.4,3.3,19.8-3.2,28.2-8.1C148.1,121.1,154.4,82.3,148.1,56.7"/>
		<path class="st0" d="M216.7,49.5c-4.7,0.9-8.4,19.3-6,34.7c2.1,13.3,3.3,27.6,4.1,41.2c3,13.3,13.6,24,26.6,26.3
			c6.5,1.2,13.1-2.6,15.8-4.3c24.9-15.9,26.1-46.8,30.9-68.5c-0.2,0.9,1.6-18.9-0.3-25.9c-0.9-3.3-6.7-3.2-5.6-3
			c-2.4-0.6-5.3,0.9-6.5,1.2c-18.7,4.7-14.2,69.9-25.3,69.5c-20.4,1.8-11-69.1-12.9-70.9C229.2,42,221.1,48.6,216.7,49.5"/>
		<path class="st0" d="M321.4,54.7c-3.7-5.5-9.9-12-18.1-9.2c-5.2,1.8-4.7,4.2-6.6,10.9c-2.2,7.7-0.8,14.8-1.1,19.9
			c-1.5,23.4-2.9,47.4,0,72.7c2.6,3.7,3.9,4.9,10.6,4.9c-3.5,0,7.5,0.6,9.5-3.4c19.8,4,1.3-39.7,7.9-48.9
			c9.2,12.1,24.6,43.5,39.8,43.2c6,2.9,8.3-3.7,15.5-3.5c5.5-12.9,6.8-38.9,6.5-35.4c1.1-12.6,2.7-24.1,3-37.3
			c-4.3-7.2,2.7-21.3-10.9-19.8c1.8-0.2-4.9,4.8-6,4.6c-3-0.5-9.8-3.2-9.2,6.3c-2.3,11.5-2.3,30.8-6.6,44.3
			c-6.6-10.3-11.2-23.6-20.4-32.2"/>
		<path class="st0" d="M505.5,50.7c-14.1,8.8-19,23.4-17,39.2c1.4,10.6-7.7,14.8,0,22.8c12.4,12.7,8.9,23.1,17,31
			c12.4,10.3,26.4,3,37.4-2.7c1.7-9.4,11.9-19.5,7.5-22.8c-1.3-0.9-1.8,0.4-4.3-1.2c-1.8-1.1-5.1-3.4-9.8,1.2c-5.1,5-12,1.1-14-3.6
			c-5.9-13.6,10.6-21.2,21-21.9c3.3-0.2,3.7-12.4,4.9-11.5c-4.4-3.3-14.1-2.6-20.7-3.5c2.9-3.6,5.3-5.9,7-9.5
			c10.3,2.1,25.7-2.1,28.6-2.7c-0.6,0.1,10.9-3.5,4.3-11.5c-5.4-6.6-20.6-6-28.2-6.1C528.2,47.6,517.9,51.9,505.5,50.7"/>
		<path class="st0" d="M482.7,93.6c-1.7-28-37.1-12.8-56-10c-2,1.5-2.4,1.8-3.6,3c-0.3,6.7,1,14.8,3.2,20.5
			c12.7-1.1,18.6,3.7,26.6,10.3c1.7,9.1-10.6,12.4-12.6,15.1c-6.8-4.2-10.3-11.5-13.1-18.7c-4.5-5.2-2.5-6.6-6.4-29.2
			c0-0.1-0.1-0.3-0.1-0.4c0,0,0,0,0,0v0c-2.6-18.4,36.9-30.3,22.7-40.9c-2.1-1.6-5.9-1.1-10.6-1.4c-21.8-1.1-37.3,18.4-39.1,33
			c-9.2,25.3,8.6,54.7,26.4,70.9c8.6,5.8,22.4,3.6,27.9,0c3.7-1.6,3.2,6.3,4.9,1.7c8.6-1.4,14.4-12.4,18.1-18.1
			c8-9.6,6.3-20.9-2.6-29.7C475.3,97,483.3,101,482.7,93.6z"/>
	</g>
</g>
</svg>
